#N canvas 1299 725 450 300 10;
#X text 140 211 University of Siena;
#X text 140 228 Social Science Department;
#X text 140 246 Head of Interaction Design;
#X text 139 194 Antonio Rizzo;
#X text 320 277 march/03/2014;
#X text 182 7 CREDITS;
#X text 39 71 Irene Monteverde musician \, tester;
#X text 39 105 Roberto Nannetti musician \, designer;
#X text 39 88 Michelangelo Guarise designer \, post-production;
