#N canvas 652 166 854 455 10;
#X obj 451 288 spigot;
#X msg 492 259 0;
#X msg 536 258 1;
#X obj 233 271 spigot;
#X msg 306 245 0;
#X msg 242 241 1;
#X obj 223 158 t b b b b;
#X obj 449 162 t b b b b;
#X msg 301 150 \; ch_col1 color 13 1 22;
#X msg 304 191 \; ch_col2 color 0 1 22;
#X msg 569 189 \; ch_col1 color 0 1 22;
#X obj 482 55 inlet;
#X obj 235 62 inlet;
#X obj 234 302 outlet;
#X obj 452 309 outlet;
#X msg 567 150 \; ch_col2 color 18 1 22;
#X connect 0 0 14 0;
#X connect 1 0 0 1;
#X connect 2 0 0 1;
#X connect 3 0 13 0;
#X connect 4 0 3 1;
#X connect 5 0 3 1;
#X connect 6 0 3 0;
#X connect 6 1 5 0;
#X connect 6 2 9 0;
#X connect 6 3 1 0;
#X connect 7 0 0 0;
#X connect 7 1 2 0;
#X connect 7 2 10 0;
#X connect 7 3 4 0;
#X connect 11 0 7 0;
#X connect 11 0 15 0;
#X connect 12 0 6 0;
#X connect 12 0 8 0;
