#N canvas 1 193 1181 506 10;
#X obj 101 101 cnv 15 430 250 empty empty Tonics&Modes 20 12 0 14 -261682
-66577 0;
#X floatatom 555 385 5 0 0 0 - - -, f 5;
#X floatatom 593 385 5 0 0 0 - - -, f 5;
#X floatatom 629 385 5 0 0 0 - - -, f 5;
#X floatatom 665 386 5 0 0 0 - - -, f 5;
#X floatatom 703 386 5 0 0 0 - - -, f 5;
#X floatatom 741 386 5 0 0 0 - - -, f 5;
#X floatatom 777 386 5 0 0 0 - - -, f 5;
#X text 687 32 Lydian;
#X text 701 75 Ionian;
#X text 711 117 Mixolydian;
#X text 732 158 Dorian;
#X text 738 197 Eolian;
#X text 742 239 Phrygian;
#X text 746 282 Locrian;
#X obj 109 193 bng 30 250 50 0 C ch_C C 10 14 0 20 -258699 -262144
-262144;
#X obj 144 193 bng 30 250 50 0 D ch_D D 10 14 0 20 -166441 -262144
-262144;
#X obj 177 193 bng 30 250 50 0 E ch_E E 10 14 0 20 -166441 -262144
-262144;
#X obj 210 193 bng 30 250 50 0 F ch_F F 10 14 0 20 -166441 -262144
-262144;
#X obj 243 193 bng 30 250 50 0 G ch_G G 10 14 0 20 -166441 -262144
-262144;
#X obj 278 193 bng 30 250 50 0 A ch_A A 10 14 0 20 -166441 -262144
-262144;
#X obj 311 193 bng 30 250 50 0 B ch_B B 10 14 0 20 -166441 -262144
-262144;
#X obj 345 193 bng 30 250 50 0 C1 ch_C1 C 10 14 0 20 -166441 -262144
-262144;
#X obj 130 158 bng 30 250 50 0 Db ch_Db Db 5 14 0 20 -166441 -262144
-262144;
#X obj 163 158 bng 30 250 50 0 Eb ch_Eb Eb 5 14 0 20 -166441 -262144
-262144;
#X obj 228 158 bng 30 250 50 0 Gb ch_Gb Gb 5 14 0 20 -166441 -262144
-262144;
#X obj 261 158 bng 30 250 50 0 Ab ch_Ab Ab 5 14 0 20 -166441 -262144
-262144;
#X obj 293 158 bng 30 250 50 0 Bb ch_Bb Bb 5 14 0 20 -166441 -262144
-262144;
#X obj 403 110 bng 20 250 50 0 lyd ch_lyd Lydian 25 10 0 14 -166441
-262144 -66577;
#X obj 403 136 bng 20 250 50 0 ion ch_ion Ionian 25 10 0 14 -258699
-262144 -66577;
#X obj 404 162 bng 20 250 50 0 mix ch_mix Mixolydian 25 10 0 14 -166441
-262144 -66577;
#X obj 404 188 bng 20 250 50 0 dor ch_dor Dorian 25 10 0 14 -166441
-262144 -66577;
#X obj 405 213 bng 20 250 50 0 eol ch_eol Eolian 25 10 0 14 -166441
-262144 -66577;
#X obj 406 239 bng 20 250 50 0 phr ch_phr Phrygian 25 10 0 14 -166441
-262144 -66577;
#X obj 406 265 bng 20 250 50 0 loc ch_loc Locrian 25 10 0 14 -166441
-262144 -66577;
#X text 760 325 Melodic minor;
#X obj 612 479 outlet;
#X obj 224 465 s tonic_num;
#X obj 455 390 r tonic_num;
#X msg 112 404 48;
#X msg 127 381 49;
#X msg 147 403 50;
#X msg 162 380 51;
#X msg 179 402 52;
#X msg 214 401 53;
#X msg 230 379 54;
#X msg 246 401 55;
#X msg 262 378 56;
#X msg 281 400 57;
#X msg 297 377 58;
#X msg 313 399 59;
#X msg 348 398 60;
#X text 1013 158 blues;
#X obj 876 321 r tonic_num;
#X obj 957 447 outlet;
#X obj 406 289 bng 20 250 50 0 mel ch_mel Mel_min 25 10 0 14 -166441
-262144 -66577;
#X obj 406 314 bng 20 250 50 0 blu ch_blu Blues 25 10 0 14 -166441
-262144 -66577;
#X obj 24 8 loadbang;
#X text 106 6 default play C scale;
#X floatatom 492 451 5 0 0 0 - - -, f 5;
#X obj 527 411 bng 15 250 50 0 empty empty empty 17 7 0 10 -262144
-1 -1;
#X obj 42 32 t b b;
#X obj 609 359 unpack f f f f f f f f;
#X obj 576 442 pack f f f f f f f f f;
#X floatatom 814 387 5 0 0 0 - - -, f 5;
#X msg 572 30 0 2 4 6 7 9 11 12;
#X msg 588 75 0 2 4 5 7 9 11 12;
#X msg 602 115 0 2 4 5 7 9 10 12;
#X msg 614 158 0 2 3 5 7 9 10 12;
#X msg 623 198 0 2 3 5 7 8 10 12;
#X msg 632 241 0 1 3 5 7 8 10 12;
#X msg 637 282 0 1 3 5 6 8 10 12;
#X msg 643 326 0 2 3 5 7 9 11 12;
#X msg 910 157 0 3 5 6 7 10 12;
#X obj 952 320 unpack f f f f f f f;
#X obj 926 414 pack f f f f f f f f;
#X floatatom 879 415 5 0 0 0 - - -, f 5;
#X obj 911 365 bng 15 250 50 0 empty empty empty 17 7 0 10 -262144
-1 -1;
#N canvas 661 554 924 560 note_button_color 0;
#X obj 2 64 bng 15 250 50 0 empty empty empty 17 7 0 10 -262144 -1
-1;
#X obj 2 15 r C;
#X obj 240 17 r D;
#X msg 2 189 \; ch_C color \$1 0 0;
#X msg 2 120 13;
#X msg 240 191 \; ch_D color \$1 0 0;
#X obj 2 87 t b b;
#X obj 120 11 r Db;
#X obj 120 60 bng 15 250 50 0 empty empty empty 17 7 0 10 -262144 -1
-1;
#X obj 44 138 r off_color;
#X obj 43 116 s off_color;
#X msg 37 160 1;
#X msg 121 125 13;
#X obj 121 92 t b b;
#X obj 163 143 r off_color;
#X obj 162 121 s off_color;
#X msg 156 165 1;
#X msg 120 190 \; ch_Db color \$1 0 0;
#X obj 240 59 bng 15 250 50 0 empty empty empty 17 7 0 10 -262144 -1
-1;
#X msg 241 124 13;
#X obj 241 91 t b b;
#X obj 283 142 r off_color;
#X obj 282 120 s off_color;
#X msg 276 164 1;
#X obj 360 59 bng 15 250 50 0 empty empty empty 17 7 0 10 -262144 -1
-1;
#X msg 361 124 13;
#X obj 361 91 t b b;
#X obj 403 142 r off_color;
#X obj 402 120 s off_color;
#X msg 396 164 1;
#X obj 360 17 r Eb;
#X msg 360 191 \; ch_Eb color \$1 0 0;
#X obj 484 57 bng 15 250 50 0 empty empty empty 17 7 0 10 -262144 -1
-1;
#X msg 485 122 13;
#X obj 485 89 t b b;
#X obj 527 140 r off_color;
#X obj 526 118 s off_color;
#X msg 520 162 1;
#X obj 484 15 r E;
#X msg 484 189 \; ch_E color \$1 0 0;
#X obj 610 56 bng 15 250 50 0 empty empty empty 17 7 0 10 -262144 -1
-1;
#X msg 611 121 13;
#X obj 611 88 t b b;
#X obj 653 139 r off_color;
#X obj 652 117 s off_color;
#X msg 646 161 1;
#X obj 606 18 r F;
#X msg 610 188 \; ch_F color \$1 0 0;
#X obj 730 57 bng 15 250 50 0 empty empty empty 17 7 0 10 -262144 -1
-1;
#X msg 731 122 13;
#X obj 731 89 t b b;
#X obj 773 140 r off_color;
#X obj 772 118 s off_color;
#X msg 766 162 1;
#X obj 730 15 r Gb;
#X msg 730 189 \; ch_Gb color \$1 0 0;
#X obj -2 285 bng 15 250 50 0 empty empty empty 17 7 0 10 -262144 -1
-1;
#X msg -1 350 13;
#X obj -1 317 t b b;
#X obj 41 368 r off_color;
#X obj 40 346 s off_color;
#X msg 34 390 1;
#X obj -2 243 r G;
#X msg -2 417 \; ch_G color \$1 0 0;
#X obj 117 286 bng 15 250 50 0 empty empty empty 17 7 0 10 -262144
-1 -1;
#X msg 118 351 13;
#X obj 118 318 t b b;
#X obj 160 369 r off_color;
#X obj 159 347 s off_color;
#X msg 153 391 1;
#X obj 117 244 r Ab;
#X msg 117 418 \; ch_Ab color \$1 0 0;
#X obj 239 286 bng 15 250 50 0 empty empty empty 17 7 0 10 -262144
-1 -1;
#X msg 240 351 13;
#X obj 240 318 t b b;
#X obj 282 369 r off_color;
#X obj 281 347 s off_color;
#X msg 275 391 1;
#X obj 239 244 r A;
#X msg 239 418 \; ch_A color \$1 0 0;
#X obj 357 287 bng 15 250 50 0 empty empty empty 17 7 0 10 -262144
-1 -1;
#X msg 358 352 13;
#X obj 358 319 t b b;
#X obj 400 370 r off_color;
#X obj 399 348 s off_color;
#X msg 393 392 1;
#X obj 357 245 r Bb;
#X msg 357 419 \; ch_Bb color \$1 0 0;
#X obj 485 285 bng 15 250 50 0 empty empty empty 17 7 0 10 -262144
-1 -1;
#X msg 486 350 13;
#X obj 486 317 t b b;
#X obj 528 368 r off_color;
#X obj 527 346 s off_color;
#X msg 521 390 1;
#X obj 485 243 r B;
#X msg 485 417 \; ch_B color \$1 0 0;
#X obj 609 285 bng 15 250 50 0 empty empty empty 17 7 0 10 -262144
-1 -1;
#X msg 610 350 13;
#X obj 610 317 t b b;
#X obj 652 368 r off_color;
#X obj 651 346 s off_color;
#X msg 645 390 1;
#X obj 609 243 r C1;
#X msg 609 417 \; ch_C1 color \$1 0 0;
#X connect 0 0 6 0;
#X connect 1 0 0 0;
#X connect 2 0 18 0;
#X connect 4 0 3 0;
#X connect 6 0 4 0;
#X connect 6 1 10 0;
#X connect 7 0 8 0;
#X connect 8 0 13 0;
#X connect 9 0 11 0;
#X connect 11 0 3 0;
#X connect 12 0 17 0;
#X connect 13 0 12 0;
#X connect 13 1 15 0;
#X connect 14 0 16 0;
#X connect 16 0 17 0;
#X connect 18 0 20 0;
#X connect 19 0 5 0;
#X connect 20 0 19 0;
#X connect 20 1 22 0;
#X connect 21 0 23 0;
#X connect 23 0 5 0;
#X connect 24 0 26 0;
#X connect 25 0 31 0;
#X connect 26 0 25 0;
#X connect 26 1 28 0;
#X connect 27 0 29 0;
#X connect 29 0 31 0;
#X connect 30 0 24 0;
#X connect 32 0 34 0;
#X connect 33 0 39 0;
#X connect 34 0 33 0;
#X connect 34 1 36 0;
#X connect 35 0 37 0;
#X connect 37 0 39 0;
#X connect 38 0 32 0;
#X connect 40 0 42 0;
#X connect 41 0 47 0;
#X connect 42 0 41 0;
#X connect 42 1 44 0;
#X connect 43 0 45 0;
#X connect 45 0 47 0;
#X connect 46 0 40 0;
#X connect 48 0 50 0;
#X connect 49 0 55 0;
#X connect 50 0 49 0;
#X connect 50 1 52 0;
#X connect 51 0 53 0;
#X connect 53 0 55 0;
#X connect 54 0 48 0;
#X connect 56 0 58 0;
#X connect 57 0 63 0;
#X connect 58 0 57 0;
#X connect 58 1 60 0;
#X connect 59 0 61 0;
#X connect 61 0 63 0;
#X connect 62 0 56 0;
#X connect 64 0 66 0;
#X connect 65 0 71 0;
#X connect 66 0 65 0;
#X connect 66 1 68 0;
#X connect 67 0 69 0;
#X connect 69 0 71 0;
#X connect 70 0 64 0;
#X connect 72 0 74 0;
#X connect 73 0 79 0;
#X connect 74 0 73 0;
#X connect 74 1 76 0;
#X connect 75 0 77 0;
#X connect 77 0 79 0;
#X connect 78 0 72 0;
#X connect 80 0 82 0;
#X connect 81 0 87 0;
#X connect 82 0 81 0;
#X connect 82 1 84 0;
#X connect 83 0 85 0;
#X connect 85 0 87 0;
#X connect 86 0 80 0;
#X connect 88 0 90 0;
#X connect 89 0 95 0;
#X connect 90 0 89 0;
#X connect 90 1 92 0;
#X connect 91 0 93 0;
#X connect 93 0 95 0;
#X connect 94 0 88 0;
#X connect 96 0 98 0;
#X connect 97 0 103 0;
#X connect 98 0 97 0;
#X connect 98 1 100 0;
#X connect 99 0 101 0;
#X connect 101 0 103 0;
#X connect 102 0 96 0;
#X restore 297 9 pd note_button_color;
#N canvas 42 701 958 435 scale_button_color 0;
#X obj 2 64 bng 15 250 50 0 empty empty empty 17 7 0 10 -262144 -1
-1;
#X obj 2 87 t b b;
#X msg 37 160 1;
#X obj 2 15 r lyd;
#X obj 129 64 bng 15 250 50 0 empty empty empty 17 7 0 10 -262144 -1
-1;
#X msg 129 120 13;
#X obj 129 87 t b b;
#X msg 164 160 1;
#X obj 129 15 r ion;
#X obj 43 116 s off_s_color;
#X obj 44 138 r off_s_color;
#X obj 170 116 s off_s_color;
#X obj 171 138 r off_s_color;
#X obj 258 64 bng 15 250 50 0 empty empty empty 17 7 0 10 -262144 -1
-1;
#X msg 258 120 13;
#X obj 258 87 t b b;
#X msg 293 160 1;
#X obj 299 116 s off_s_color;
#X obj 300 138 r off_s_color;
#X obj 258 15 r mix;
#X msg 2 120 13;
#X msg 2 189 \; ch_lyd color \$1 0 2;
#X msg 129 189 \; ch_ion color \$1 0 2;
#X msg 259 189 \; ch_mix color \$1 0 2;
#X obj 389 64 bng 15 250 50 0 empty empty empty 17 7 0 10 -262144 -1
-1;
#X msg 389 120 13;
#X obj 389 87 t b b;
#X msg 424 160 1;
#X obj 430 116 s off_s_color;
#X obj 431 138 r off_s_color;
#X obj 389 15 r dor;
#X msg 390 189 \; ch_dor color \$1 0 2;
#X obj 520 64 bng 15 250 50 0 empty empty empty 17 7 0 10 -262144 -1
-1;
#X msg 520 120 13;
#X obj 520 87 t b b;
#X msg 555 160 1;
#X obj 561 116 s off_s_color;
#X obj 562 138 r off_s_color;
#X obj 520 15 r eol;
#X msg 521 189 \; ch_eol color \$1 0 2;
#X obj 648 63 bng 15 250 50 0 empty empty empty 17 7 0 10 -262144 -1
-1;
#X msg 648 119 13;
#X obj 648 86 t b b;
#X msg 683 159 1;
#X obj 689 115 s off_s_color;
#X obj 690 137 r off_s_color;
#X obj 648 14 r phr;
#X msg 649 188 \; ch_phr color \$1 0 2;
#X obj 778 64 bng 15 250 50 0 empty empty empty 17 7 0 10 -262144 -1
-1;
#X msg 778 120 13;
#X obj 778 87 t b b;
#X msg 813 160 1;
#X obj 819 116 s off_s_color;
#X obj 820 138 r off_s_color;
#X obj 778 15 r loc;
#X msg 779 189 \; ch_loc color \$1 0 2;
#X obj 2 277 bng 15 250 50 0 empty empty empty 17 7 0 10 -262144 -1
-1;
#X obj 2 300 t b b;
#X msg 37 373 1;
#X obj 43 329 s off_s_color;
#X obj 44 351 r off_s_color;
#X msg 2 333 13;
#X obj 2 228 r mel;
#X msg 2 402 \; ch_mel color \$1 0 2;
#X obj 133 276 bng 15 250 50 0 empty empty empty 17 7 0 10 -262144
-1 -1;
#X obj 133 299 t b b;
#X msg 168 372 1;
#X obj 174 328 s off_s_color;
#X obj 175 350 r off_s_color;
#X msg 133 332 13;
#X obj 133 227 r blu;
#X msg 133 401 \; ch_blu color \$1 0 2;
#X connect 0 0 1 0;
#X connect 1 0 20 0;
#X connect 1 1 9 0;
#X connect 2 0 21 0;
#X connect 3 0 0 0;
#X connect 4 0 6 0;
#X connect 5 0 22 0;
#X connect 6 0 5 0;
#X connect 6 1 11 0;
#X connect 7 0 22 0;
#X connect 8 0 4 0;
#X connect 10 0 2 0;
#X connect 12 0 7 0;
#X connect 13 0 15 0;
#X connect 14 0 23 0;
#X connect 15 0 14 0;
#X connect 15 1 17 0;
#X connect 16 0 23 0;
#X connect 18 0 16 0;
#X connect 19 0 13 0;
#X connect 20 0 21 0;
#X connect 24 0 26 0;
#X connect 25 0 31 0;
#X connect 26 0 25 0;
#X connect 26 1 28 0;
#X connect 27 0 31 0;
#X connect 29 0 27 0;
#X connect 30 0 24 0;
#X connect 32 0 34 0;
#X connect 33 0 39 0;
#X connect 34 0 33 0;
#X connect 34 1 36 0;
#X connect 35 0 39 0;
#X connect 37 0 35 0;
#X connect 38 0 32 0;
#X connect 40 0 42 0;
#X connect 41 0 47 0;
#X connect 42 0 41 0;
#X connect 42 1 44 0;
#X connect 43 0 47 0;
#X connect 45 0 43 0;
#X connect 46 0 40 0;
#X connect 48 0 50 0;
#X connect 49 0 55 0;
#X connect 50 0 49 0;
#X connect 50 1 52 0;
#X connect 51 0 55 0;
#X connect 53 0 51 0;
#X connect 54 0 48 0;
#X connect 56 0 57 0;
#X connect 57 0 61 0;
#X connect 57 1 59 0;
#X connect 58 0 63 0;
#X connect 60 0 58 0;
#X connect 61 0 63 0;
#X connect 62 0 56 0;
#X connect 64 0 65 0;
#X connect 65 0 69 0;
#X connect 65 1 67 0;
#X connect 66 0 71 0;
#X connect 68 0 66 0;
#X connect 69 0 71 0;
#X connect 70 0 64 0;
#X restore 297 46 pd scale_button_color;
#X obj 573 5 r lyd;
#X obj 613 6 t b b;
#X obj 654 6 s mod_onoff;
#X obj 629 51 t b b;
#X obj 670 51 s mod_onoff;
#X obj 589 50 r ion;
#X obj 641 95 t b b;
#X obj 682 95 s mod_onoff;
#X obj 601 94 r mix;
#X obj 655 137 t b b;
#X obj 696 137 s mod_onoff;
#X obj 615 136 r dor;
#X obj 663 177 t b b;
#X obj 704 177 s mod_onoff;
#X obj 623 176 r eol;
#X obj 671 220 t b b;
#X obj 712 220 s mod_onoff;
#X obj 631 219 r phr;
#X obj 679 262 t b b;
#X obj 720 262 s mod_onoff;
#X obj 639 261 r loc;
#X obj 684 305 t b b;
#X obj 725 305 s mod_onoff;
#X obj 644 304 r mel;
#X obj 950 134 t b b;
#X obj 910 133 r blu;
#X obj 991 134 s blues_onoff;
#X connect 1 0 60 0;
#X connect 1 0 63 1;
#X connect 2 0 63 2;
#X connect 3 0 63 3;
#X connect 4 0 63 4;
#X connect 5 0 63 5;
#X connect 6 0 63 6;
#X connect 7 0 63 7;
#X connect 15 0 39 0;
#X connect 16 0 41 0;
#X connect 17 0 43 0;
#X connect 18 0 44 0;
#X connect 19 0 46 0;
#X connect 20 0 48 0;
#X connect 21 0 50 0;
#X connect 22 0 51 0;
#X connect 23 0 40 0;
#X connect 24 0 42 0;
#X connect 25 0 45 0;
#X connect 26 0 47 0;
#X connect 27 0 49 0;
#X connect 38 0 59 0;
#X connect 39 0 37 0;
#X connect 40 0 37 0;
#X connect 41 0 37 0;
#X connect 42 0 37 0;
#X connect 43 0 37 0;
#X connect 44 0 37 0;
#X connect 45 0 37 0;
#X connect 46 0 37 0;
#X connect 47 0 37 0;
#X connect 48 0 37 0;
#X connect 49 0 37 0;
#X connect 50 0 37 0;
#X connect 51 0 37 0;
#X connect 53 0 76 0;
#X connect 57 0 61 0;
#X connect 59 0 63 0;
#X connect 60 0 59 0;
#X connect 61 0 29 0;
#X connect 61 1 15 0;
#X connect 62 0 1 0;
#X connect 62 1 2 0;
#X connect 62 2 3 0;
#X connect 62 3 4 0;
#X connect 62 4 5 0;
#X connect 62 5 6 0;
#X connect 62 6 7 0;
#X connect 62 7 64 0;
#X connect 63 0 36 0;
#X connect 64 0 63 8;
#X connect 65 0 62 0;
#X connect 66 0 62 0;
#X connect 67 0 62 0;
#X connect 68 0 62 0;
#X connect 69 0 62 0;
#X connect 70 0 62 0;
#X connect 71 0 62 0;
#X connect 72 0 62 0;
#X connect 73 0 74 0;
#X connect 74 0 75 1;
#X connect 74 0 77 0;
#X connect 74 1 75 2;
#X connect 74 2 75 3;
#X connect 74 3 75 4;
#X connect 74 4 75 5;
#X connect 74 5 75 6;
#X connect 74 6 75 7;
#X connect 75 0 54 0;
#X connect 76 0 75 0;
#X connect 77 0 76 0;
#X connect 80 0 81 0;
#X connect 81 0 65 0;
#X connect 81 1 82 0;
#X connect 83 0 66 0;
#X connect 83 1 84 0;
#X connect 85 0 83 0;
#X connect 86 0 67 0;
#X connect 86 1 87 0;
#X connect 88 0 86 0;
#X connect 89 0 68 0;
#X connect 89 1 90 0;
#X connect 91 0 89 0;
#X connect 92 0 69 0;
#X connect 92 1 93 0;
#X connect 94 0 92 0;
#X connect 95 0 70 0;
#X connect 95 1 96 0;
#X connect 97 0 95 0;
#X connect 98 0 71 0;
#X connect 98 1 99 0;
#X connect 100 0 98 0;
#X connect 101 0 72 0;
#X connect 101 1 102 0;
#X connect 103 0 101 0;
#X connect 104 0 73 0;
#X connect 104 1 106 0;
#X connect 105 0 104 0;
#X coords 0 -1 1 1 430 250 2 100 100;
