#N canvas 33 644 1181 499 10;
#X floatatom 552 353 5 0 0 0 - - -, f 5;
#X floatatom 590 353 5 0 0 0 - - -, f 5;
#X floatatom 626 353 5 0 0 0 - - -, f 5;
#X floatatom 662 354 5 0 0 0 - - -, f 5;
#X floatatom 700 354 5 0 0 0 - - -, f 5;
#X floatatom 738 354 5 0 0 0 - - -, f 5;
#X obj 606 327 unpack f f f f f f f;
#X floatatom 774 354 5 0 0 0 - - -, f 5;
#X msg 776 114 2 3 5 7 9 11 12;
#X msg 634 138 2 4 5 7 9 11 12;
#X msg 695 185 2 3 5 7 9 10 12;
#X msg 662 161 2 4 5 7 9 10 12;
#X msg 606 115 2 4 6 7 9 11 12;
#X text 712 115 Lydian;
#X text 746 135 Ionian;
#X text 765 160 Mixolydian;
#X text 799 185 Dorian;
#X msg 717 212 2 3 5 7 8 10 12;
#X text 819 212 Eolian;
#X msg 735 243 1 3 5 7 8 10 12;
#X text 837 241 Phrygian;
#X msg 753 273 1 3 5 6 8 10 12;
#X text 855 273 Locrian;
#X obj 108 194 bng 30 250 50 0 empty empty C 10 14 0 20 -262144 -1
-1;
#X obj 143 194 bng 30 250 50 0 empty empty D 10 14 0 20 -262144 -1
-1;
#X obj 176 194 bng 30 250 50 0 empty empty E 10 14 0 20 -262144 -1
-1;
#X obj 209 194 bng 30 250 50 0 empty empty F 10 14 0 20 -262144 -1
-1;
#X obj 242 194 bng 30 250 50 0 empty empty G 10 14 0 20 -262144 -1
-1;
#X obj 277 194 bng 30 250 50 0 empty empty A 10 14 0 20 -262144 -1
-1;
#X obj 310 194 bng 30 250 50 0 empty empty B 10 14 0 20 -262144 -1
-1;
#X obj 344 194 bng 30 250 50 0 empty empty C 10 14 0 20 -262144 -1
-1;
#X obj 129 159 bng 30 250 50 0 empty empty Db 5 14 0 20 -262144 -1
-1;
#X obj 162 159 bng 30 250 50 0 empty empty Eb 5 14 0 20 -262144 -1
-1;
#X obj 227 159 bng 30 250 50 0 empty empty Gb 5 14 0 20 -262144 -1
-1;
#X obj 260 159 bng 30 250 50 0 empty empty Ab 5 14 0 20 -262144 -1
-1;
#X obj 292 159 bng 30 250 50 0 empty empty Bb 5 14 0 20 -262144 -1
-1;
#X obj 402 111 bng 20 250 50 0 lyd_on empty Lydian 25 10 0 14 -262144
-1 -1;
#X obj 402 137 bng 20 250 50 0 ion_on empty Ionian 25 10 0 14 -262144
-1 -1;
#X obj 403 163 bng 20 250 50 0 mix_on empty Mixolydian 25 10 0 14 -262144
-1 -1;
#X obj 403 189 bng 20 250 50 0 dor_on empty Dorian 25 10 0 14 -262144
-1 -1;
#X obj 404 214 bng 20 250 50 0 eol_on empty Eolian 25 10 0 14 -262144
-1 -1;
#X obj 405 240 bng 20 250 50 0 phr_on empty Phrygian 25 10 0 14 -262144
-1 -1;
#X obj 405 266 bng 20 250 50 0 loc_on empty Locrian 25 10 0 14 -262144
-1 -1;
#X text 874 115 Melodic minor;
#X obj 511 112 tgl 20 0 empty lyd_onoff empty 17 7 0 10 -262144 -1
-1 0 1;
#X obj 511 137 tgl 20 0 empty ion_onoff empty 17 7 0 10 -262144 -1
-1 0 1;
#X obj 511 162 tgl 20 0 empty mix_onoff empty 17 7 0 10 -262144 -1
-1 0 1;
#X obj 511 187 tgl 20 0 empty dor_onoff empty 17 7 0 10 -262144 -1
-1 0 1;
#X obj 511 214 tgl 20 0 empty eol_onoff empty 17 7 0 10 -262144 -1
-1 0 1;
#X obj 511 239 tgl 20 0 empty phr_onoff empty 17 7 0 10 -262144 -1
-1 0 1;
#X obj 511 264 tgl 20 0 empty loc_onoff empty 17 7 0 10 -262144 -1
-1 0 1;
#N canvas 1 93 1149 625 feed_modi 0;
#X obj 59 14 r lyd_on;
#X obj 28 40 bng 15 250 50 0 empty empty empty 17 7 0 10 -262144 -1
-1;
#X obj 37 94 s lyd_onoff;
#X msg 37 66 1;
#X msg 128 61 0;
#X obj 148 88 s ion_onoff;
#X obj 149 111 s mix_onoff;
#X obj 149 134 s dor_onoff;
#X obj 150 161 s eol_onoff;
#X obj 149 188 s phr_onoff;
#X obj 143 210 s loc_onoff;
#X obj 230 42 bng 15 250 50 0 empty empty empty 17 7 0 10 -262144 -1
-1;
#X msg 239 68 1;
#X msg 330 63 0;
#X obj 351 113 s mix_onoff;
#X obj 351 136 s dor_onoff;
#X obj 352 163 s eol_onoff;
#X obj 351 190 s phr_onoff;
#X obj 345 212 s loc_onoff;
#X obj 261 16 r ion_on;
#X obj 350 90 s lyd_onoff;
#X obj 436 39 bng 15 250 50 0 empty empty empty 17 7 0 10 -262144 -1
-1;
#X msg 445 65 1;
#X msg 536 60 0;
#X obj 559 108 s ion_onoff;
#X obj 557 133 s dor_onoff;
#X obj 558 160 s eol_onoff;
#X obj 557 187 s phr_onoff;
#X obj 551 209 s loc_onoff;
#X obj 466 13 r mix_on;
#X obj 558 84 s lyd_onoff;
#X obj 634 41 bng 15 250 50 0 empty empty empty 17 7 0 10 -262144 -1
-1;
#X msg 643 67 1;
#X msg 734 63 0;
#X obj 757 110 s ion_onoff;
#X obj 756 162 s eol_onoff;
#X obj 755 189 s phr_onoff;
#X obj 749 211 s loc_onoff;
#X obj 756 86 s lyd_onoff;
#X obj 664 15 r dor_on;
#X obj 754 135 s mix_onoff;
#X obj 12 324 bng 15 250 50 0 empty empty empty 17 7 0 10 -262144 -1
-1;
#X msg 21 350 1;
#X msg 112 345 0;
#X obj 135 393 s ion_onoff;
#X obj 133 472 s phr_onoff;
#X obj 127 494 s loc_onoff;
#X obj 134 369 s lyd_onoff;
#X obj 132 418 s mix_onoff;
#X obj 42 298 r eol_on;
#X obj 134 445 s dor_onoff;
#X obj 239 314 bng 15 250 50 0 empty empty empty 17 7 0 10 -262144
-1 -1;
#X msg 248 340 1;
#X msg 339 335 0;
#X obj 362 383 s ion_onoff;
#X obj 354 484 s loc_onoff;
#X obj 361 359 s lyd_onoff;
#X obj 359 408 s mix_onoff;
#X obj 361 435 s dor_onoff;
#X obj 269 288 r phr_on;
#X obj 360 462 s eol_onoff;
#X obj 476 316 bng 15 250 50 0 empty empty empty 17 7 0 10 -262144
-1 -1;
#X msg 485 342 1;
#X msg 576 337 0;
#X obj 599 385 s ion_onoff;
#X obj 598 361 s lyd_onoff;
#X obj 596 410 s mix_onoff;
#X obj 598 437 s dor_onoff;
#X obj 597 464 s eol_onoff;
#X obj 506 290 r loc_on;
#X obj 591 486 s phr_onoff;
#X obj 239 96 s ion_onoff;
#X obj 445 93 s mix_onoff;
#X obj 643 95 s dor_onoff;
#X obj 21 378 s eol_onoff;
#X obj 248 368 s phr_onoff;
#X obj 485 370 s loc_onoff;
#X obj 694 320 bng 15 250 50 0 empty empty empty 17 7 0 10 -262144
-1 -1;
#X msg 703 346 1;
#X msg 794 341 0;
#X obj 817 389 s ion_onoff;
#X obj 816 365 s lyd_onoff;
#X obj 814 414 s mix_onoff;
#X obj 816 441 s dor_onoff;
#X obj 815 468 s eol_onoff;
#X obj 809 490 s phr_onoff;
#X obj 724 294 r melm_on;
#X obj 703 374 s melm_onoff;
#X obj 134 231 s melm_onoff;
#X obj 331 231 s melm_onoff;
#X obj 542 228 s melm_onoff;
#X obj 742 231 s melm_onoff;
#X obj 117 515 s melm_onoff;
#X obj 345 507 s melm_onoff;
#X obj 582 508 s melm_onoff;
#X obj 803 510 s loc_onoff;
#X obj 902 320 bng 15 250 50 0 empty empty empty 17 7 0 10 -262144
-1 -1;
#X msg 911 346 1;
#X msg 1002 341 0;
#X obj 1025 389 s ion_onoff;
#X obj 1024 365 s lyd_onoff;
#X obj 1022 414 s mix_onoff;
#X obj 1024 441 s dor_onoff;
#X obj 1023 468 s eol_onoff;
#X obj 1017 490 s phr_onoff;
#X obj 1011 510 s loc_onoff;
#X obj 932 294 r blues_on;
#X obj 911 374 s blues_onoff;
#X obj 1000 531 s melm_onoff;
#X obj 122 252 s blues_onoff;
#X obj 320 254 s blues_onoff;
#X obj 530 248 s blues_onoff;
#X obj 733 251 s blues_onoff;
#X obj 106 536 s blues_onoff;
#X obj 334 529 s blues_onoff;
#X obj 572 531 s blues_onoff;
#X obj 792 531 s blues_onoff;
#X connect 0 0 1 0;
#X connect 0 0 3 0;
#X connect 0 0 4 0;
#X connect 3 0 2 0;
#X connect 4 0 5 0;
#X connect 4 0 6 0;
#X connect 4 0 7 0;
#X connect 4 0 8 0;
#X connect 4 0 9 0;
#X connect 4 0 10 0;
#X connect 4 0 88 0;
#X connect 4 0 109 0;
#X connect 12 0 71 0;
#X connect 13 0 14 0;
#X connect 13 0 15 0;
#X connect 13 0 16 0;
#X connect 13 0 17 0;
#X connect 13 0 18 0;
#X connect 13 0 20 0;
#X connect 13 0 89 0;
#X connect 13 0 110 0;
#X connect 19 0 11 0;
#X connect 19 0 12 0;
#X connect 19 0 13 0;
#X connect 22 0 72 0;
#X connect 23 0 24 0;
#X connect 23 0 25 0;
#X connect 23 0 26 0;
#X connect 23 0 27 0;
#X connect 23 0 28 0;
#X connect 23 0 30 0;
#X connect 23 0 90 0;
#X connect 23 0 111 0;
#X connect 29 0 21 0;
#X connect 29 0 22 0;
#X connect 29 0 23 0;
#X connect 32 0 73 0;
#X connect 33 0 34 0;
#X connect 33 0 35 0;
#X connect 33 0 36 0;
#X connect 33 0 37 0;
#X connect 33 0 38 0;
#X connect 33 0 40 0;
#X connect 33 0 91 0;
#X connect 33 0 112 0;
#X connect 39 0 31 0;
#X connect 39 0 32 0;
#X connect 39 0 33 0;
#X connect 42 0 74 0;
#X connect 43 0 44 0;
#X connect 43 0 45 0;
#X connect 43 0 46 0;
#X connect 43 0 47 0;
#X connect 43 0 48 0;
#X connect 43 0 50 0;
#X connect 43 0 92 0;
#X connect 43 0 113 0;
#X connect 49 0 41 0;
#X connect 49 0 42 0;
#X connect 49 0 43 0;
#X connect 52 0 75 0;
#X connect 53 0 54 0;
#X connect 53 0 55 0;
#X connect 53 0 56 0;
#X connect 53 0 57 0;
#X connect 53 0 58 0;
#X connect 53 0 60 0;
#X connect 53 0 93 0;
#X connect 53 0 114 0;
#X connect 59 0 51 0;
#X connect 59 0 52 0;
#X connect 59 0 53 0;
#X connect 62 0 76 0;
#X connect 63 0 64 0;
#X connect 63 0 65 0;
#X connect 63 0 66 0;
#X connect 63 0 67 0;
#X connect 63 0 68 0;
#X connect 63 0 70 0;
#X connect 63 0 94 0;
#X connect 63 0 115 0;
#X connect 69 0 61 0;
#X connect 69 0 62 0;
#X connect 69 0 63 0;
#X connect 78 0 87 0;
#X connect 79 0 80 0;
#X connect 79 0 81 0;
#X connect 79 0 82 0;
#X connect 79 0 83 0;
#X connect 79 0 84 0;
#X connect 79 0 85 0;
#X connect 79 0 95 0;
#X connect 79 0 116 0;
#X connect 86 0 77 0;
#X connect 86 0 78 0;
#X connect 86 0 79 0;
#X connect 97 0 107 0;
#X connect 98 0 99 0;
#X connect 98 0 100 0;
#X connect 98 0 101 0;
#X connect 98 0 102 0;
#X connect 98 0 103 0;
#X connect 98 0 104 0;
#X connect 98 0 105 0;
#X connect 98 0 108 0;
#X connect 106 0 96 0;
#X connect 106 0 97 0;
#X connect 106 0 98 0;
#X restore 551 45 pd feed_modi;
#X obj 573 410 pack f f f f f f f f;
#X obj 609 447 outlet;
#X obj 221 442 s tonic_num;
#X obj 454 349 r tonic_num;
#X msg 109 381 48;
#X msg 124 358 49;
#X msg 144 380 50;
#X msg 159 357 51;
#X msg 176 379 52;
#X msg 211 378 53;
#X msg 227 356 54;
#X msg 243 378 55;
#X msg 259 355 56;
#X msg 278 377 57;
#X msg 294 354 58;
#X msg 310 376 59;
#X msg 345 375 60;
#X msg 919 157 3 5 6 7 10 12;
#X text 1012 159 blues;
#X obj 951 321 unpack f f f f f f;
#X obj 875 322 r tonic_num;
#X obj 909 359 pack f f f f f f f;
#X obj 914 412 outlet;
#X obj 405 290 bng 20 250 50 0 melm_on empty Mel_min 25 10 0 14 -262144
-1 -1;
#X obj 511 288 tgl 20 0 empty melm_onoff empty 17 7 0 10 -262144 -1
-1 1 1;
#X obj 405 315 bng 20 250 50 0 blues_on empty Blues 25 10 0 14 -262144
-1 -1;
#X obj 511 314 tgl 20 0 empty blues_onoff empty 17 7 0 10 -262144 -1
-1 0 1;
#X text 117 129 Keys;
#X obj 23 9 loadbang;
#X text 105 7 default play C scale;
#X floatatom 491 418 5 0 0 0 - - -, f 5;
#X obj 187 284 tgl 30 0 mod_onoff empty scale_modali -7 -7 0 10 -262144
-1 -1 1 1;
#X obj 302 284 tgl 30 0 blues_onoff empty blues 17 7 0 10 -262144 -1
-1 0 1;
#X obj 526 378 bng 15 250 50 0 empty empty empty 17 7 0 10 -262144
-1 -1;
#X obj 41 33 t b b;
#X connect 0 0 52 1;
#X connect 0 0 85 0;
#X connect 1 0 52 2;
#X connect 2 0 52 3;
#X connect 3 0 52 4;
#X connect 4 0 52 5;
#X connect 5 0 52 6;
#X connect 6 0 0 0;
#X connect 6 1 1 0;
#X connect 6 2 2 0;
#X connect 6 3 3 0;
#X connect 6 4 4 0;
#X connect 6 5 5 0;
#X connect 6 6 7 0;
#X connect 7 0 52 7;
#X connect 8 0 6 0;
#X connect 9 0 6 0;
#X connect 10 0 6 0;
#X connect 11 0 6 0;
#X connect 12 0 6 0;
#X connect 17 0 6 0;
#X connect 19 0 6 0;
#X connect 21 0 6 0;
#X connect 23 0 56 0;
#X connect 24 0 58 0;
#X connect 25 0 60 0;
#X connect 26 0 61 0;
#X connect 27 0 63 0;
#X connect 28 0 65 0;
#X connect 29 0 67 0;
#X connect 30 0 68 0;
#X connect 31 0 57 0;
#X connect 32 0 59 0;
#X connect 33 0 62 0;
#X connect 34 0 64 0;
#X connect 35 0 66 0;
#X connect 36 0 12 0;
#X connect 37 0 9 0;
#X connect 38 0 11 0;
#X connect 39 0 10 0;
#X connect 40 0 17 0;
#X connect 41 0 19 0;
#X connect 42 0 21 0;
#X connect 52 0 53 0;
#X connect 55 0 82 0;
#X connect 56 0 54 0;
#X connect 57 0 54 0;
#X connect 58 0 54 0;
#X connect 59 0 54 0;
#X connect 60 0 54 0;
#X connect 61 0 54 0;
#X connect 62 0 54 0;
#X connect 63 0 54 0;
#X connect 64 0 54 0;
#X connect 65 0 54 0;
#X connect 66 0 54 0;
#X connect 67 0 54 0;
#X connect 68 0 54 0;
#X connect 69 0 71 0;
#X connect 71 0 73 1;
#X connect 71 1 73 2;
#X connect 71 2 73 3;
#X connect 71 3 73 4;
#X connect 71 4 73 5;
#X connect 71 5 73 6;
#X connect 72 0 73 0;
#X connect 73 0 74 0;
#X connect 75 0 8 0;
#X connect 77 0 69 0;
#X connect 80 0 86 0;
#X connect 82 0 52 0;
#X connect 85 0 82 0;
#X connect 86 0 37 0;
#X connect 86 1 23 0;
#X coords 0 -1 1 1 450 250 2 100 100;
