#N canvas 386 645 450 300 10;
#X obj 101 100 cnv 15 100 60 empty empty overtone 20 12 0 14 -232576
-66577 0;
#X obj 123 131 tgl 20 0 empty empty on/off 25 7 0 10 -262144 -1 -1
0 1;
#N canvas 131 651 450 300 fx-harmo 0;
#N canvas 116 580 450 300 harmonizer 0;
#X obj 80 9 inlet;
#X obj 74 271 outlet;
#X floatatom 77 136 5 0 0 0 - - -, f 5;
#X obj 37 182 + 7;
#X obj 77 182 + 12;
#X obj 129 183 - 5;
#X obj 27 234 mtof;
#X obj 80 234 mtof;
#X obj 133 231 mtof;
#X obj 131 268 outlet;
#X obj 22 272 outlet;
#X obj 113 106 spigot;
#X obj 149 9 inlet;
#X obj 207 92 sel 0;
#X msg 206 125 0;
#X text 245 111 reset;
#X floatatom 66 79 5 0 0 0 - - -, f 5;
#X obj 123 44 t b f;
#X connect 0 0 16 0;
#X connect 2 0 4 0;
#X connect 2 0 3 1;
#X connect 2 0 5 0;
#X connect 3 0 6 0;
#X connect 4 0 7 0;
#X connect 5 0 8 0;
#X connect 6 0 10 0;
#X connect 7 0 1 0;
#X connect 8 0 9 0;
#X connect 11 0 2 0;
#X connect 12 0 13 0;
#X connect 12 0 17 0;
#X connect 13 0 14 0;
#X connect 14 0 2 0;
#X connect 16 0 11 0;
#X connect 17 0 16 0;
#X connect 17 1 11 1;
#X restore -5 105 pd harmonizer;
#X obj -36 155 osc~;
#X obj 17 154 osc~;
#X obj 74 155 osc~;
#X obj -50 259 s~ up5;
#X obj 24 266 s~ up12;
#X obj 94 261 s~ down4;
#X obj -39 61 inlet;
#X obj 88 220 *~;
#X obj 24 225 *~;
#X obj -37 225 *~;
#X obj 152 52 inlet;
#X obj -37 179 *~ 0.1;
#X obj 16 178 *~ 0.1;
#X obj 73 179 *~ 0.1;
#X connect 0 0 1 0;
#X connect 0 1 2 0;
#X connect 0 2 3 0;
#X connect 1 0 12 0;
#X connect 2 0 13 0;
#X connect 3 0 14 0;
#X connect 7 0 0 0;
#X connect 8 0 6 0;
#X connect 9 0 5 0;
#X connect 10 0 4 0;
#X connect 11 0 8 1;
#X connect 11 0 9 1;
#X connect 11 0 10 1;
#X connect 11 0 0 1;
#X connect 12 0 10 0;
#X connect 13 0 9 0;
#X connect 14 0 8 0;
#X restore 50 252 pd fx-harmo;
#X obj 44 30 r mid;
#X connect 1 0 2 1;
#X connect 3 0 2 0;
#X coords 0 -1 1 1 100 60 1 100 100;
