#N canvas 29 460 1324 490 12;
#X obj 71 368 jon~;
#X floatatom 127 423 0 0 120 0 - - -;
#N canvas 0 50 600 322 output 0;
#X obj 349 170 pack 0 100;
#X obj 349 193 line~;
#X obj 164 210 *~;
#X obj 349 148 dbtorms;
#X obj 58 65 inlet~;
#X obj 394 93 inlet;
#X obj 394 125 clip 0 120;
#X msg 474 184 \; pd dsp 1;
#X obj 164 23 inlet~;
#X obj 204 213 *~;
#X obj 215 48 inlet~;
#X obj 55 129 *~ 1;
#X obj 160 114 *~ 1;
#X obj 211 112 *~ 1;
#X obj 80 95 r dry;
#X obj 248 85 r wet;
#X obj 65 249 throw~ L;
#X obj 246 251 throw~ R;
#X connect 0 0 1 0;
#X connect 1 0 2 1;
#X connect 1 0 9 1;
#X connect 2 0 16 0;
#X connect 3 0 0 0;
#X connect 4 0 11 0;
#X connect 5 0 6 0;
#X connect 5 0 7 0;
#X connect 6 0 3 0;
#X connect 8 0 12 0;
#X connect 9 0 17 0;
#X connect 10 0 13 0;
#X connect 11 0 2 0;
#X connect 11 0 9 0;
#X connect 12 0 2 0;
#X connect 13 0 9 0;
#X connect 14 0 11 1;
#X connect 15 0 13 1;
#X connect 15 0 12 1;
#X restore 42 423 pd output;
#X text 165 424 output level \, dB;
#N canvas 66 50 387 608 receive_params 0;
#X msg 58 293 input_diffusion1 \$1;
#X msg 70 349 input_diffusion2 \$1;
#X msg 78 410 decay_diffusion1 \$1;
#X msg 87 469 decay_diffusion2 \$1;
#X msg 33 75 predelay \$1;
#X msg 33 132 bandwidth \$1;
#X msg 33 183 damping \$1;
#X msg 33 238 decay \$1;
#X msg 125 533 excursion \$1;
#X obj 33 547 outlet;
#X obj 33 48 r predelay;
#X obj 33 105 r bandwidth;
#X obj 33 159 r damping;
#X obj 33 213 r decay;
#X obj 58 268 r input_diffusion1;
#X obj 70 322 r input_diffusion2;
#X obj 78 383 r decay_diffusion1;
#X obj 87 442 r decay_diffusion2;
#X obj 125 503 r excursion;
#X connect 0 0 9 0;
#X connect 1 0 9 0;
#X connect 2 0 9 0;
#X connect 3 0 9 0;
#X connect 4 0 9 0;
#X connect 5 0 9 0;
#X connect 6 0 9 0;
#X connect 7 0 9 0;
#X connect 8 0 9 0;
#X connect 10 0 4 0;
#X connect 11 0 5 0;
#X connect 12 0 6 0;
#X connect 13 0 7 0;
#X connect 14 0 0 0;
#X connect 15 0 1 0;
#X connect 16 0 2 0;
#X connect 17 0 3 0;
#X connect 18 0 8 0;
#X restore 141 331 pd receive_params;
#X msg 133 393 90;
#X obj 42 258 r~ drysg;
#X obj 154 365 loadbang;
#X obj 91 199 r~ up12;
#X obj 23 219 r~ up5;
#X obj 115 230 r~ down4;
#X text 15 2 jon~ - Reverb abstraction based on "Simplified plate-class
reverberation topology in the style of Griesinger" from the article
"Effect Design \, Part 1: Reverberator and Other Filters" by Jon Dattorro.
;
#X text 15 2 jon~ - Reverb abstraction based on "Simplified plate-class
reverberation topology in the style of Griesinger" from the article
"Effect Design \, Part 1: Reverberator and Other Filters" by Jon Dattorro.
;
#X obj 450 40 cnv 15 200 250 empty empty verb 20 12 0 14 -232576 -66577
0;
#X obj 473 265 tgl 15 1 empty empty dry 17 7 0 10 -262144 -1 -1 1 1
;
#X obj 533 265 tgl 15 1 empty empty wet 17 7 0 10 -262144 -1 -1 1 1
;
#X obj 533 326 s wet;
#X obj 473 326 s dry;
#N canvas 13 106 622 480 presets 0;
#X obj 40 26 inlet;
#X msg 43 122 \; param1 0 \; param2 22050 \; param3 22050 \; param4
0.5 \; param5 0.75 \; param6 0.625 \; param7 0.7 \; param8 0.5 \; param9
0.53761 \;;
#X msg 116 307 \; param1 0 \; param2 10000 \; param3 4637 \; param4
0.98 \; param5 0.685 \; param6 0.779 \; param7 0.74 \; param8 0.68
\; param9 0.53761 \;;
#X msg 199 123 \; param1 0 \; param2 10000 \; param3 4637 \; param4
0.98 \; param5 0.685 \; param6 0.779 \; param7 0.74 \; param8 0.68
\; param9 0 \;;
#X msg 278 304 \; param1 10 \; param2 10000 \; param3 4637 \; param4
0.99 \; param5 0.685 \; param6 0.779 \; param7 0.889 \; param8 0.84
\; param9 0.53761 \;;
#X msg 359 131 \; param1 10 \; param2 10000 \; param3 4637 \; param4
0.99 \; param5 0.685 \; param6 0.779 \; param7 0.889 \; param8 0.84
\; param9 0 \;;
#X msg 443 303 \; param1 216.535 \; param2 22050 \; param3 22050 \;
param4 0.677165 \; param5 0.850394 \; param6 0.92126 \; param7 0.80315
\; param8 0.818898 \; param9 0.11811 \;;
#X obj 39 70 route default large large_noexcursion huge huge_noexcursion
tadada;
#X connect 0 0 7 0;
#X connect 7 0 1 0;
#X connect 7 1 2 0;
#X connect 7 2 3 0;
#X connect 7 3 4 0;
#X connect 7 4 5 0;
#X connect 7 5 6 0;
#X restore 762 251 pd presets;
#X msg 665 99 default;
#X msg 665 166 huge;
#X msg 665 188 huge_noexcursion;
#X msg 665 121 large;
#X msg 665 144 large_noexcursion;
#X msg 665 211 tadada;
#X text 476 70 presets:;
#X obj 507 108 bng 20 250 50 0 empty empty default 25 7 0 10 -262144
-1 -1;
#X obj 508 131 bng 20 250 50 0 empty empty large 25 7 0 10 -262144
-1 -1;
#X obj 508 153 bng 20 250 50 0 empty empty large_noexcursion 25 7 0
10 -262144 -1 -1;
#X obj 508 176 bng 20 250 50 0 empty empty huge 25 7 0 10 -262144 -1
-1;
#X obj 509 198 bng 20 250 50 0 empty empty huge_noexcursion 25 7 0
10 -262144 -1 -1;
#X obj 509 220 bng 20 250 50 0 empty empty tadada 25 7 0 10 -262144
-1 -1;
#X connect 0 0 2 1;
#X connect 0 1 2 2;
#X connect 1 0 2 3;
#X connect 4 0 0 2;
#X connect 5 0 2 3;
#X connect 6 0 0 0;
#X connect 6 0 0 1;
#X connect 6 0 2 0;
#X connect 7 0 5 0;
#X connect 8 0 2 0;
#X connect 8 0 0 0;
#X connect 8 0 0 1;
#X connect 9 0 2 0;
#X connect 9 0 0 0;
#X connect 9 0 0 1;
#X connect 10 0 2 0;
#X connect 10 0 0 0;
#X connect 10 0 0 1;
#X connect 14 0 17 0;
#X connect 15 0 16 0;
#X connect 19 0 18 0;
#X connect 20 0 18 0;
#X connect 21 0 18 0;
#X connect 22 0 18 0;
#X connect 23 0 18 0;
#X connect 24 0 18 0;
#X connect 26 0 19 0;
#X connect 27 0 22 0;
#X connect 28 0 23 0;
#X connect 29 0 20 0;
#X connect 30 0 21 0;
#X connect 31 0 24 0;
#X coords 0 -1 1 1 200 250 1 450 40;
