#N canvas 116 430 684 632 10;
#X obj 593 513 tgl 15 0 empty empty empty 17 7 0 10 -262144 -1 -1 0
1;
#X msg 592 538 \; pd dsp \$1;
#X obj 78 -12 bng 15 250 50 0 empty empty open_file 17 7 0 10 -262144
-1 -1;
#X obj 79 15 openpanel;
#N canvas 0 50 450 300 (subpatch) 0;
#X array channelL 1.3655e+06 float 2;
#X coords 0 1 1.3655e+06 -1 200 140 1;
#X restore 453 123 graph;
#N canvas 0 50 450 300 (subpatch) 0;
#X array channelR 1.3655e+06 float 2;
#X coords 0 1 1.3655e+06 -1 200 140 1 0 0;
#X restore 452 288 graph;
#X obj 79 69 soundfiler;
#X floatatom 79 90 12 0 0 0 - - -, f 12;
#X obj 7 122 s sampleSize;
#X obj 148 166 expr 44100 / $f1;
#X floatatom 169 191 12 0 0 0 - - -, f 12;
#X obj 148 257 phasor~;
#X obj 177 284 r sampleSize;
#X obj 129 361 tabread4~ channelL;
#X obj 157 389 tabread4~ channelL;
#X obj 147 308 *~;
#X obj 130 498 *~;
#X obj 158 497 *~;
#X obj 136 530 dac~;
#X obj 287 296 tgl 15 0 empty empty empty 17 7 0 10 -262144 -1 -1 0
1;
#X obj 287 344 snapshot~;
#X floatatom 287 365 12 0 0 0 - - -, f 12;
#X obj 287 406 /;
#X obj 344 402 r sampleSize;
#X floatatom 287 428 5 0 0 0 - - -, f 5;
#X obj 455 444 hsl 195 15 0 1 0 0 empty empty empty -2 -8 0 10 -262144
-1 -1 0 1;
#X obj 287 319 metro 25;
#X obj 27 297 unsig~;
#X floatatom 51 354 5 0 0 0 - - -, f 5;
#X msg 300 145 0;
#X obj 192 -13 bng 15 250 50 0 empty empty play/continue 17 7 0 10
-262144 -1 -1;
#X msg 309 186 0;
#X msg 320 211 0.5;
#X obj 51 381 > 0.99;
#X obj 50 489 s reset;
#X obj 50 432 sel 1;
#X obj 50 407 change;
#X obj 50 464 bng 15 250 50 0 empty empty empty 17 7 0 10 -262144 -1
-1;
#X obj 370 79 r reset;
#X msg 324 234 0.89;
#X obj 148 134 spigot;
#X msg 203 134 1;
#X msg 221 107 0;
#X obj 171 79 t b b b;
#X obj 299 -12 bng 15 250 50 0 empty empty stop 17 7 0 10 -262144 -1
-1;
#X obj 59 -54 inlet;
#X obj 178 -56 inlet;
#X obj 287 -53 inlet;
#X obj 397 -53 inlet;
#X obj 397 -28 s volume;
#X obj 254 468 r volume;
#X obj 491 -54 inlet;
#X obj 356 105 t b b;
#X obj 491 26 s pitch;
#X obj 86 216 r pitch;
#X obj 169 213 s in_pitch;
#X obj 516 -10 hsl 128 15 -0.01 0.01 0 0 empty empty empty -2 -8 0
10 -262144 -1 -1 0 1;
#X obj 347 -52 inlet;
#X obj 22 16 s reset;
#X msg 79 42 read -resize -maxsize 8e+07 \$1 channelL channelR;
#X text 1 254 per non ripetere attaccare al phasor;
#X obj 52 326 spigot;
#X obj 76 298 r loopon;
#X connect 0 0 1 0;
#X connect 2 0 3 0;
#X connect 2 0 58 0;
#X connect 3 0 59 0;
#X connect 6 0 7 0;
#X connect 7 0 8 0;
#X connect 7 0 40 0;
#X connect 9 0 10 0;
#X connect 9 0 11 0;
#X connect 10 0 55 0;
#X connect 11 0 15 0;
#X connect 11 0 27 0;
#X connect 12 0 15 1;
#X connect 13 0 16 0;
#X connect 14 0 17 0;
#X connect 15 0 13 0;
#X connect 15 0 14 0;
#X connect 15 0 20 0;
#X connect 16 0 18 0;
#X connect 17 0 18 1;
#X connect 19 0 26 0;
#X connect 20 0 21 0;
#X connect 21 0 22 0;
#X connect 22 0 24 0;
#X connect 23 0 22 1;
#X connect 24 0 25 0;
#X connect 26 0 20 0;
#X connect 27 0 61 0;
#X connect 28 0 33 0;
#X connect 29 0 11 0;
#X connect 30 0 43 0;
#X connect 31 0 11 1;
#X connect 32 0 11 1;
#X connect 33 0 36 0;
#X connect 35 0 37 0;
#X connect 36 0 35 0;
#X connect 37 0 34 0;
#X connect 38 0 52 0;
#X connect 39 0 11 1;
#X connect 40 0 9 0;
#X connect 41 0 40 1;
#X connect 42 0 40 1;
#X connect 43 0 42 0;
#X connect 43 1 7 0;
#X connect 43 2 41 0;
#X connect 44 0 29 0;
#X connect 45 0 2 0;
#X connect 46 0 30 0;
#X connect 47 0 44 0;
#X connect 48 0 49 0;
#X connect 50 0 17 1;
#X connect 50 0 16 1;
#X connect 51 0 56 0;
#X connect 52 0 31 0;
#X connect 52 1 29 0;
#X connect 54 0 11 0;
#X connect 56 0 53 0;
#X connect 57 0 52 0;
#X connect 59 0 6 0;
#X connect 61 0 28 0;
#X connect 62 0 61 1;
