#N canvas 257 82 879 537 10;
#X obj 131 32 modi;
#N canvas 740 127 450 300 mode_note 0;
#X obj 142 -26 unpack f f f f f f f f;
#X floatatom 116 2 5 0 0 0 - - -;
#X floatatom 153 3 5 0 0 0 - - -;
#X floatatom 188 3 5 0 0 0 - - -;
#X floatatom 225 4 5 0 0 0 - - -;
#X floatatom 370 5 5 0 0 0 - - -;
#X floatatom 260 5 5 0 0 0 - - -;
#X floatatom 297 4 5 0 0 0 - - -;
#X floatatom 334 5 5 0 0 0 - - -;
#X symbolatom 114 126 3 0 0 0 - - -;
#N canvas 484 116 619 300 note 0;
#X msg -11 115 C;
#X msg 31 114 D;
#X msg 71 117 E;
#X msg 99 117 F;
#X msg 132 117 G;
#X msg 173 118 A;
#X msg 214 118 B;
#X msg 242 118 C;
#X obj 216 194 symbol;
#X msg 4 93 Db;
#X msg 46 92 Eb;
#X msg 113 94 Gb;
#X msg 154 95 Ab;
#X msg 195 95 Bb;
#X obj 135 -1 inlet;
#X obj 215 240 outlet;
#X msg 282 118 D;
#X msg 322 121 E;
#X msg 350 121 F;
#X msg 383 121 G;
#X msg 424 122 A;
#X msg 465 122 B;
#X msg 493 122 C;
#X msg 255 97 Db;
#X msg 297 96 Eb;
#X msg 364 98 Gb;
#X msg 405 99 Ab;
#X msg 446 99 Bb;
#X obj 53 42 sel 36 37 38 39 40 41 42 43 44 45 46 47 48 49 50 51 52
53 54 55 56 57 58 59 60;
#X connect 0 0 8 0;
#X connect 1 0 8 0;
#X connect 2 0 8 0;
#X connect 3 0 8 0;
#X connect 4 0 8 0;
#X connect 5 0 8 0;
#X connect 6 0 8 0;
#X connect 7 0 8 0;
#X connect 8 0 15 0;
#X connect 9 0 8 0;
#X connect 10 0 8 0;
#X connect 11 0 8 0;
#X connect 12 0 8 0;
#X connect 13 0 8 0;
#X connect 14 0 28 0;
#X connect 16 0 8 0;
#X connect 17 0 8 0;
#X connect 18 0 8 0;
#X connect 19 0 8 0;
#X connect 20 0 8 0;
#X connect 21 0 8 0;
#X connect 22 0 8 0;
#X connect 23 0 8 0;
#X connect 24 0 8 0;
#X connect 25 0 8 0;
#X connect 26 0 8 0;
#X connect 27 0 8 0;
#X connect 28 0 0 0;
#X connect 28 1 9 0;
#X connect 28 2 1 0;
#X connect 28 3 10 0;
#X connect 28 4 2 0;
#X connect 28 5 3 0;
#X connect 28 6 11 0;
#X connect 28 7 4 0;
#X connect 28 8 12 0;
#X connect 28 9 5 0;
#X connect 28 10 13 0;
#X connect 28 11 6 0;
#X connect 28 12 7 0;
#X connect 28 13 23 0;
#X connect 28 14 16 0;
#X connect 28 15 24 0;
#X connect 28 16 17 0;
#X connect 28 17 18 0;
#X connect 28 18 25 0;
#X connect 28 19 19 0;
#X connect 28 20 26 0;
#X connect 28 21 20 0;
#X connect 28 22 27 0;
#X connect 28 23 21 0;
#X connect 28 24 22 0;
#X restore 70 68 pd note;
#X symbolatom 145 126 3 0 0 0 - - -;
#X symbolatom 180 126 3 0 0 0 - - -;
#X symbolatom 214 126 3 0 0 0 - - -;
#X symbolatom 250 125 3 0 0 0 - - -;
#X symbolatom 284 126 3 0 0 0 - - -;
#X symbolatom 316 126 3 0 0 0 - - -;
#X symbolatom 348 127 3 0 0 0 - - -;
#N canvas 484 116 619 300 note 0;
#X msg -11 115 C;
#X msg 31 114 D;
#X msg 71 117 E;
#X msg 99 117 F;
#X msg 132 117 G;
#X msg 173 118 A;
#X msg 214 118 B;
#X msg 242 118 C;
#X obj 216 194 symbol;
#X msg 4 93 Db;
#X msg 46 92 Eb;
#X msg 113 94 Gb;
#X msg 154 95 Ab;
#X msg 195 95 Bb;
#X obj 135 -1 inlet;
#X obj 215 240 outlet;
#X msg 282 118 D;
#X msg 322 121 E;
#X msg 350 121 F;
#X msg 383 121 G;
#X msg 424 122 A;
#X msg 465 122 B;
#X msg 493 122 C;
#X msg 255 97 Db;
#X msg 297 96 Eb;
#X msg 364 98 Gb;
#X msg 405 99 Ab;
#X msg 446 99 Bb;
#X obj 53 42 sel 36 37 38 39 40 41 42 43 44 45 46 47 48 49 50 51 52
53 54 55 56 57 58 59 60;
#X connect 0 0 8 0;
#X connect 1 0 8 0;
#X connect 2 0 8 0;
#X connect 3 0 8 0;
#X connect 4 0 8 0;
#X connect 5 0 8 0;
#X connect 6 0 8 0;
#X connect 7 0 8 0;
#X connect 8 0 15 0;
#X connect 9 0 8 0;
#X connect 10 0 8 0;
#X connect 11 0 8 0;
#X connect 12 0 8 0;
#X connect 13 0 8 0;
#X connect 14 0 28 0;
#X connect 16 0 8 0;
#X connect 17 0 8 0;
#X connect 18 0 8 0;
#X connect 19 0 8 0;
#X connect 20 0 8 0;
#X connect 21 0 8 0;
#X connect 22 0 8 0;
#X connect 23 0 8 0;
#X connect 24 0 8 0;
#X connect 25 0 8 0;
#X connect 26 0 8 0;
#X connect 27 0 8 0;
#X connect 28 0 0 0;
#X connect 28 1 9 0;
#X connect 28 2 1 0;
#X connect 28 3 10 0;
#X connect 28 4 2 0;
#X connect 28 5 3 0;
#X connect 28 6 11 0;
#X connect 28 7 4 0;
#X connect 28 8 12 0;
#X connect 28 9 5 0;
#X connect 28 10 13 0;
#X connect 28 11 6 0;
#X connect 28 12 7 0;
#X connect 28 13 23 0;
#X connect 28 14 16 0;
#X connect 28 15 24 0;
#X connect 28 16 17 0;
#X connect 28 17 18 0;
#X connect 28 18 25 0;
#X connect 28 19 19 0;
#X connect 28 20 26 0;
#X connect 28 21 20 0;
#X connect 28 22 27 0;
#X connect 28 23 21 0;
#X connect 28 24 22 0;
#X restore 118 69 pd note;
#N canvas 484 116 619 300 note 0;
#X msg -11 115 C;
#X msg 31 114 D;
#X msg 71 117 E;
#X msg 99 117 F;
#X msg 132 117 G;
#X msg 173 118 A;
#X msg 214 118 B;
#X msg 242 118 C;
#X obj 216 194 symbol;
#X msg 4 93 Db;
#X msg 46 92 Eb;
#X msg 113 94 Gb;
#X msg 154 95 Ab;
#X msg 195 95 Bb;
#X obj 135 -1 inlet;
#X obj 215 240 outlet;
#X msg 282 118 D;
#X msg 322 121 E;
#X msg 350 121 F;
#X msg 383 121 G;
#X msg 424 122 A;
#X msg 465 122 B;
#X msg 493 122 C;
#X msg 255 97 Db;
#X msg 297 96 Eb;
#X msg 364 98 Gb;
#X msg 405 99 Ab;
#X msg 446 99 Bb;
#X obj 53 42 sel 36 37 38 39 40 41 42 43 44 45 46 47 48 49 50 51 52
53 54 55 56 57 58 59 60;
#X connect 0 0 8 0;
#X connect 1 0 8 0;
#X connect 2 0 8 0;
#X connect 3 0 8 0;
#X connect 4 0 8 0;
#X connect 5 0 8 0;
#X connect 6 0 8 0;
#X connect 7 0 8 0;
#X connect 8 0 15 0;
#X connect 9 0 8 0;
#X connect 10 0 8 0;
#X connect 11 0 8 0;
#X connect 12 0 8 0;
#X connect 13 0 8 0;
#X connect 14 0 28 0;
#X connect 16 0 8 0;
#X connect 17 0 8 0;
#X connect 18 0 8 0;
#X connect 19 0 8 0;
#X connect 20 0 8 0;
#X connect 21 0 8 0;
#X connect 22 0 8 0;
#X connect 23 0 8 0;
#X connect 24 0 8 0;
#X connect 25 0 8 0;
#X connect 26 0 8 0;
#X connect 27 0 8 0;
#X connect 28 0 0 0;
#X connect 28 1 9 0;
#X connect 28 2 1 0;
#X connect 28 3 10 0;
#X connect 28 4 2 0;
#X connect 28 5 3 0;
#X connect 28 6 11 0;
#X connect 28 7 4 0;
#X connect 28 8 12 0;
#X connect 28 9 5 0;
#X connect 28 10 13 0;
#X connect 28 11 6 0;
#X connect 28 12 7 0;
#X connect 28 13 23 0;
#X connect 28 14 16 0;
#X connect 28 15 24 0;
#X connect 28 16 17 0;
#X connect 28 17 18 0;
#X connect 28 18 25 0;
#X connect 28 19 19 0;
#X connect 28 20 26 0;
#X connect 28 21 20 0;
#X connect 28 22 27 0;
#X connect 28 23 21 0;
#X connect 28 24 22 0;
#X restore 166 67 pd note;
#N canvas 484 116 619 300 note 0;
#X msg -11 115 C;
#X msg 31 114 D;
#X msg 71 117 E;
#X msg 99 117 F;
#X msg 132 117 G;
#X msg 173 118 A;
#X msg 214 118 B;
#X msg 242 118 C;
#X obj 216 194 symbol;
#X msg 4 93 Db;
#X msg 46 92 Eb;
#X msg 113 94 Gb;
#X msg 154 95 Ab;
#X msg 195 95 Bb;
#X obj 135 -1 inlet;
#X obj 215 240 outlet;
#X msg 282 118 D;
#X msg 322 121 E;
#X msg 350 121 F;
#X msg 383 121 G;
#X msg 424 122 A;
#X msg 465 122 B;
#X msg 493 122 C;
#X msg 255 97 Db;
#X msg 297 96 Eb;
#X msg 364 98 Gb;
#X msg 405 99 Ab;
#X msg 446 99 Bb;
#X obj 53 42 sel 36 37 38 39 40 41 42 43 44 45 46 47 48 49 50 51 52
53 54 55 56 57 58 59 60;
#X connect 0 0 8 0;
#X connect 1 0 8 0;
#X connect 2 0 8 0;
#X connect 3 0 8 0;
#X connect 4 0 8 0;
#X connect 5 0 8 0;
#X connect 6 0 8 0;
#X connect 7 0 8 0;
#X connect 8 0 15 0;
#X connect 9 0 8 0;
#X connect 10 0 8 0;
#X connect 11 0 8 0;
#X connect 12 0 8 0;
#X connect 13 0 8 0;
#X connect 14 0 28 0;
#X connect 16 0 8 0;
#X connect 17 0 8 0;
#X connect 18 0 8 0;
#X connect 19 0 8 0;
#X connect 20 0 8 0;
#X connect 21 0 8 0;
#X connect 22 0 8 0;
#X connect 23 0 8 0;
#X connect 24 0 8 0;
#X connect 25 0 8 0;
#X connect 26 0 8 0;
#X connect 27 0 8 0;
#X connect 28 0 0 0;
#X connect 28 1 9 0;
#X connect 28 2 1 0;
#X connect 28 3 10 0;
#X connect 28 4 2 0;
#X connect 28 5 3 0;
#X connect 28 6 11 0;
#X connect 28 7 4 0;
#X connect 28 8 12 0;
#X connect 28 9 5 0;
#X connect 28 10 13 0;
#X connect 28 11 6 0;
#X connect 28 12 7 0;
#X connect 28 13 23 0;
#X connect 28 14 16 0;
#X connect 28 15 24 0;
#X connect 28 16 17 0;
#X connect 28 17 18 0;
#X connect 28 18 25 0;
#X connect 28 19 19 0;
#X connect 28 20 26 0;
#X connect 28 21 20 0;
#X connect 28 22 27 0;
#X connect 28 23 21 0;
#X connect 28 24 22 0;
#X restore 214 68 pd note;
#N canvas 484 116 619 300 note 0;
#X msg -11 115 C;
#X msg 31 114 D;
#X msg 71 117 E;
#X msg 99 117 F;
#X msg 132 117 G;
#X msg 173 118 A;
#X msg 214 118 B;
#X msg 242 118 C;
#X obj 216 194 symbol;
#X msg 4 93 Db;
#X msg 46 92 Eb;
#X msg 113 94 Gb;
#X msg 154 95 Ab;
#X msg 195 95 Bb;
#X obj 135 -1 inlet;
#X obj 215 240 outlet;
#X msg 282 118 D;
#X msg 322 121 E;
#X msg 350 121 F;
#X msg 383 121 G;
#X msg 424 122 A;
#X msg 465 122 B;
#X msg 493 122 C;
#X msg 255 97 Db;
#X msg 297 96 Eb;
#X msg 364 98 Gb;
#X msg 405 99 Ab;
#X msg 446 99 Bb;
#X obj 53 42 sel 36 37 38 39 40 41 42 43 44 45 46 47 48 49 50 51 52
53 54 55 56 57 58 59 60;
#X connect 0 0 8 0;
#X connect 1 0 8 0;
#X connect 2 0 8 0;
#X connect 3 0 8 0;
#X connect 4 0 8 0;
#X connect 5 0 8 0;
#X connect 6 0 8 0;
#X connect 7 0 8 0;
#X connect 8 0 15 0;
#X connect 9 0 8 0;
#X connect 10 0 8 0;
#X connect 11 0 8 0;
#X connect 12 0 8 0;
#X connect 13 0 8 0;
#X connect 14 0 28 0;
#X connect 16 0 8 0;
#X connect 17 0 8 0;
#X connect 18 0 8 0;
#X connect 19 0 8 0;
#X connect 20 0 8 0;
#X connect 21 0 8 0;
#X connect 22 0 8 0;
#X connect 23 0 8 0;
#X connect 24 0 8 0;
#X connect 25 0 8 0;
#X connect 26 0 8 0;
#X connect 27 0 8 0;
#X connect 28 0 0 0;
#X connect 28 1 9 0;
#X connect 28 2 1 0;
#X connect 28 3 10 0;
#X connect 28 4 2 0;
#X connect 28 5 3 0;
#X connect 28 6 11 0;
#X connect 28 7 4 0;
#X connect 28 8 12 0;
#X connect 28 9 5 0;
#X connect 28 10 13 0;
#X connect 28 11 6 0;
#X connect 28 12 7 0;
#X connect 28 13 23 0;
#X connect 28 14 16 0;
#X connect 28 15 24 0;
#X connect 28 16 17 0;
#X connect 28 17 18 0;
#X connect 28 18 25 0;
#X connect 28 19 19 0;
#X connect 28 20 26 0;
#X connect 28 21 20 0;
#X connect 28 22 27 0;
#X connect 28 23 21 0;
#X connect 28 24 22 0;
#X restore 263 68 pd note;
#N canvas 484 116 619 300 note 0;
#X msg -11 115 C;
#X msg 31 114 D;
#X msg 71 117 E;
#X msg 99 117 F;
#X msg 132 117 G;
#X msg 173 118 A;
#X msg 214 118 B;
#X msg 242 118 C;
#X obj 216 194 symbol;
#X msg 4 93 Db;
#X msg 46 92 Eb;
#X msg 113 94 Gb;
#X msg 154 95 Ab;
#X msg 195 95 Bb;
#X obj 135 -1 inlet;
#X obj 215 240 outlet;
#X msg 282 118 D;
#X msg 322 121 E;
#X msg 350 121 F;
#X msg 383 121 G;
#X msg 424 122 A;
#X msg 465 122 B;
#X msg 493 122 C;
#X msg 255 97 Db;
#X msg 297 96 Eb;
#X msg 364 98 Gb;
#X msg 405 99 Ab;
#X msg 446 99 Bb;
#X obj 53 42 sel 36 37 38 39 40 41 42 43 44 45 46 47 48 49 50 51 52
53 54 55 56 57 58 59 60;
#X connect 0 0 8 0;
#X connect 1 0 8 0;
#X connect 2 0 8 0;
#X connect 3 0 8 0;
#X connect 4 0 8 0;
#X connect 5 0 8 0;
#X connect 6 0 8 0;
#X connect 7 0 8 0;
#X connect 8 0 15 0;
#X connect 9 0 8 0;
#X connect 10 0 8 0;
#X connect 11 0 8 0;
#X connect 12 0 8 0;
#X connect 13 0 8 0;
#X connect 14 0 28 0;
#X connect 16 0 8 0;
#X connect 17 0 8 0;
#X connect 18 0 8 0;
#X connect 19 0 8 0;
#X connect 20 0 8 0;
#X connect 21 0 8 0;
#X connect 22 0 8 0;
#X connect 23 0 8 0;
#X connect 24 0 8 0;
#X connect 25 0 8 0;
#X connect 26 0 8 0;
#X connect 27 0 8 0;
#X connect 28 0 0 0;
#X connect 28 1 9 0;
#X connect 28 2 1 0;
#X connect 28 3 10 0;
#X connect 28 4 2 0;
#X connect 28 5 3 0;
#X connect 28 6 11 0;
#X connect 28 7 4 0;
#X connect 28 8 12 0;
#X connect 28 9 5 0;
#X connect 28 10 13 0;
#X connect 28 11 6 0;
#X connect 28 12 7 0;
#X connect 28 13 23 0;
#X connect 28 14 16 0;
#X connect 28 15 24 0;
#X connect 28 16 17 0;
#X connect 28 17 18 0;
#X connect 28 18 25 0;
#X connect 28 19 19 0;
#X connect 28 20 26 0;
#X connect 28 21 20 0;
#X connect 28 22 27 0;
#X connect 28 23 21 0;
#X connect 28 24 22 0;
#X restore 311 69 pd note;
#N canvas 484 116 619 300 note 0;
#X msg -11 115 C;
#X msg 31 114 D;
#X msg 71 117 E;
#X msg 99 117 F;
#X msg 132 117 G;
#X msg 173 118 A;
#X msg 214 118 B;
#X msg 242 118 C;
#X obj 216 194 symbol;
#X msg 4 93 Db;
#X msg 46 92 Eb;
#X msg 113 94 Gb;
#X msg 154 95 Ab;
#X msg 195 95 Bb;
#X obj 135 -1 inlet;
#X obj 215 240 outlet;
#X msg 282 118 D;
#X msg 322 121 E;
#X msg 350 121 F;
#X msg 383 121 G;
#X msg 424 122 A;
#X msg 465 122 B;
#X msg 493 122 C;
#X msg 255 97 Db;
#X msg 297 96 Eb;
#X msg 364 98 Gb;
#X msg 405 99 Ab;
#X msg 446 99 Bb;
#X obj 53 42 sel 36 37 38 39 40 41 42 43 44 45 46 47 48 49 50 51 52
53 54 55 56 57 58 59 60;
#X connect 0 0 8 0;
#X connect 1 0 8 0;
#X connect 2 0 8 0;
#X connect 3 0 8 0;
#X connect 4 0 8 0;
#X connect 5 0 8 0;
#X connect 6 0 8 0;
#X connect 7 0 8 0;
#X connect 8 0 15 0;
#X connect 9 0 8 0;
#X connect 10 0 8 0;
#X connect 11 0 8 0;
#X connect 12 0 8 0;
#X connect 13 0 8 0;
#X connect 14 0 28 0;
#X connect 16 0 8 0;
#X connect 17 0 8 0;
#X connect 18 0 8 0;
#X connect 19 0 8 0;
#X connect 20 0 8 0;
#X connect 21 0 8 0;
#X connect 22 0 8 0;
#X connect 23 0 8 0;
#X connect 24 0 8 0;
#X connect 25 0 8 0;
#X connect 26 0 8 0;
#X connect 27 0 8 0;
#X connect 28 0 0 0;
#X connect 28 1 9 0;
#X connect 28 2 1 0;
#X connect 28 3 10 0;
#X connect 28 4 2 0;
#X connect 28 5 3 0;
#X connect 28 6 11 0;
#X connect 28 7 4 0;
#X connect 28 8 12 0;
#X connect 28 9 5 0;
#X connect 28 10 13 0;
#X connect 28 11 6 0;
#X connect 28 12 7 0;
#X connect 28 13 23 0;
#X connect 28 14 16 0;
#X connect 28 15 24 0;
#X connect 28 16 17 0;
#X connect 28 17 18 0;
#X connect 28 18 25 0;
#X connect 28 19 19 0;
#X connect 28 20 26 0;
#X connect 28 21 20 0;
#X connect 28 22 27 0;
#X connect 28 23 21 0;
#X connect 28 24 22 0;
#X restore 359 67 pd note;
#N canvas 484 116 619 300 note 0;
#X msg -11 115 C;
#X msg 31 114 D;
#X msg 71 117 E;
#X msg 99 117 F;
#X msg 132 117 G;
#X msg 173 118 A;
#X msg 214 118 B;
#X msg 242 118 C;
#X obj 216 194 symbol;
#X msg 4 93 Db;
#X msg 46 92 Eb;
#X msg 113 94 Gb;
#X msg 154 95 Ab;
#X msg 195 95 Bb;
#X obj 135 -1 inlet;
#X obj 215 240 outlet;
#X msg 282 118 D;
#X msg 322 121 E;
#X msg 350 121 F;
#X msg 383 121 G;
#X msg 424 122 A;
#X msg 465 122 B;
#X msg 493 122 C;
#X msg 255 97 Db;
#X msg 297 96 Eb;
#X msg 364 98 Gb;
#X msg 405 99 Ab;
#X msg 446 99 Bb;
#X obj 53 42 sel 36 37 38 39 40 41 42 43 44 45 46 47 48 49 50 51 52
53 54 55 56 57 58 59 60;
#X connect 0 0 8 0;
#X connect 1 0 8 0;
#X connect 2 0 8 0;
#X connect 3 0 8 0;
#X connect 4 0 8 0;
#X connect 5 0 8 0;
#X connect 6 0 8 0;
#X connect 7 0 8 0;
#X connect 8 0 15 0;
#X connect 9 0 8 0;
#X connect 10 0 8 0;
#X connect 11 0 8 0;
#X connect 12 0 8 0;
#X connect 13 0 8 0;
#X connect 14 0 28 0;
#X connect 16 0 8 0;
#X connect 17 0 8 0;
#X connect 18 0 8 0;
#X connect 19 0 8 0;
#X connect 20 0 8 0;
#X connect 21 0 8 0;
#X connect 22 0 8 0;
#X connect 23 0 8 0;
#X connect 24 0 8 0;
#X connect 25 0 8 0;
#X connect 26 0 8 0;
#X connect 27 0 8 0;
#X connect 28 0 0 0;
#X connect 28 1 9 0;
#X connect 28 2 1 0;
#X connect 28 3 10 0;
#X connect 28 4 2 0;
#X connect 28 5 3 0;
#X connect 28 6 11 0;
#X connect 28 7 4 0;
#X connect 28 8 12 0;
#X connect 28 9 5 0;
#X connect 28 10 13 0;
#X connect 28 11 6 0;
#X connect 28 12 7 0;
#X connect 28 13 23 0;
#X connect 28 14 16 0;
#X connect 28 15 24 0;
#X connect 28 16 17 0;
#X connect 28 17 18 0;
#X connect 28 18 25 0;
#X connect 28 19 19 0;
#X connect 28 20 26 0;
#X connect 28 21 20 0;
#X connect 28 22 27 0;
#X connect 28 23 21 0;
#X connect 28 24 22 0;
#X restore 407 68 pd note;
#X obj 91 -46 inlet;
#X connect 0 0 1 0;
#X connect 0 1 2 0;
#X connect 0 2 3 0;
#X connect 0 3 4 0;
#X connect 0 4 6 0;
#X connect 0 5 7 0;
#X connect 0 6 8 0;
#X connect 0 7 5 0;
#X connect 1 0 10 0;
#X connect 2 0 18 0;
#X connect 3 0 19 0;
#X connect 4 0 20 0;
#X connect 5 0 24 0;
#X connect 6 0 21 0;
#X connect 7 0 22 0;
#X connect 8 0 23 0;
#X connect 10 0 9 0;
#X connect 18 0 11 0;
#X connect 19 0 12 0;
#X connect 20 0 13 0;
#X connect 21 0 14 0;
#X connect 22 0 15 0;
#X connect 23 0 16 0;
#X connect 24 0 17 0;
#X connect 25 0 0 0;
#X coords 0 -1 1 1 280 60 1 100 100;
#X restore 136 167 pd mode_note;
#X obj 57 266 unpack f f f f f f f f;
#X floatatom -16 303 5 0 0 0 - - -;
#X floatatom 21 304 5 0 0 0 - - -;
#X floatatom 56 304 5 0 0 0 - - -;
#X floatatom 93 305 5 0 0 0 - - -;
#X floatatom 238 306 5 0 0 0 - - -;
#X floatatom 128 306 5 0 0 0 - - -;
#X floatatom 165 305 5 0 0 0 - - -;
#X floatatom 202 306 5 0 0 0 - - -;
#X obj 329 266 unpack f f f f f f f f;
#X floatatom 275 307 5 0 0 0 - - -;
#X floatatom 312 308 5 0 0 0 - - -;
#X floatatom 347 308 5 0 0 0 - - -;
#X floatatom 384 309 5 0 0 0 - - -;
#X floatatom 529 310 5 0 0 0 - - -;
#X floatatom 419 310 5 0 0 0 - - -;
#X floatatom 456 309 5 0 0 0 - - -;
#X floatatom 493 310 5 0 0 0 - - -;
#X obj 616 266 unpack f f f f f f f f;
#X floatatom 568 309 5 0 0 0 - - -;
#X floatatom 605 310 5 0 0 0 - - -;
#X floatatom 640 310 5 0 0 0 - - -;
#X floatatom 677 311 5 0 0 0 - - -;
#X floatatom 822 312 5 0 0 0 - - -;
#X floatatom 712 312 5 0 0 0 - - -;
#X floatatom 749 311 5 0 0 0 - - -;
#X floatatom 786 312 5 0 0 0 - - -;
#X obj 97 350 pack f f f f f f f;
#X symbolatom 97 416 20 0 0 0 - - -;
#X obj 97 374 tosymbol;
#X obj 332 350 pack f f f f f f f;
#X symbolatom 332 416 20 0 0 0 - - -;
#X obj 332 384 tosymbol;
#X obj 622 353 pack f f f f f f f;
#X symbolatom 622 419 20 0 0 0 - - -;
#X obj 622 387 tosymbol;
#X obj 9 446 random;
#X msg 160 450;
#X connect 0 0 1 0;
#X connect 0 0 2 0;
#X connect 0 1 11 0;
#X connect 0 2 20 0;
#X connect 2 0 3 0;
#X connect 2 1 4 0;
#X connect 2 2 5 0;
#X connect 2 3 6 0;
#X connect 2 4 8 0;
#X connect 2 5 9 0;
#X connect 2 6 10 0;
#X connect 2 7 7 0;
#X connect 3 0 29 0;
#X connect 4 0 29 1;
#X connect 5 0 29 2;
#X connect 6 0 29 3;
#X connect 8 0 29 4;
#X connect 9 0 29 5;
#X connect 10 0 29 6;
#X connect 11 0 12 0;
#X connect 11 1 13 0;
#X connect 11 2 14 0;
#X connect 11 3 15 0;
#X connect 11 4 17 0;
#X connect 11 5 18 0;
#X connect 11 6 19 0;
#X connect 11 7 16 0;
#X connect 12 0 32 0;
#X connect 13 0 32 1;
#X connect 14 0 32 2;
#X connect 15 0 32 3;
#X connect 17 0 32 4;
#X connect 18 0 32 5;
#X connect 19 0 32 6;
#X connect 20 0 21 0;
#X connect 20 1 22 0;
#X connect 20 2 23 0;
#X connect 20 3 24 0;
#X connect 20 4 26 0;
#X connect 20 5 27 0;
#X connect 20 6 28 0;
#X connect 20 7 25 0;
#X connect 21 0 35 0;
#X connect 22 0 35 1;
#X connect 23 0 35 2;
#X connect 24 0 35 3;
#X connect 26 0 35 4;
#X connect 27 0 35 5;
#X connect 28 0 35 6;
#X connect 29 0 31 0;
#X connect 31 0 30 0;
#X connect 32 0 34 0;
#X connect 34 0 33 0;
#X connect 35 0 37 0;
#X connect 37 0 36 0;
