#N canvas 79 481 450 300 10;
#X obj 83 120 comport;
#X msg 114 68 devicename /dev/ttymxc3;
#X obj 72 194 print;
#X msg 48 53 close;
#X floatatom 192 194 5 0 0 0 - - -, f 5;
#X floatatom 125 193 5 0 0 0 - - -, f 5;
#X obj 127 155 unpack f f;
#X connect 0 0 6 0;
#X connect 0 0 2 0;
#X connect 1 0 0 0;
#X connect 3 0 0 0;
#X connect 6 0 5 0;
#X connect 6 1 4 0;
