#N canvas 37 745 450 392 10;
#X floatatom 158 -7 5 0 0 0 - - -, f 5;
#X obj 211 122 outlet;
#X obj 321 120 outlet;
#X text 161 -114 modali 7 suoni;
#X text 317 143 midi num;
#X text 209 145 freq num;
#N canvas 11 586 783 612 modali_diatoniche 0;
#N canvas 25 707 739 450 note_reknowing 0;
#X obj 49 99 f;
#N canvas 756 755 450 347 note 0;
#X obj 160 137 &;
#X floatatom 160 164 5 0 0 0 - - -, f 5;
#X obj 198 107 < \$1;
#X obj 160 106 >= \$1;
#X obj 123 141 / 10;
#X floatatom 123 164 5 0 0 0 - - -, f 5;
#X floatatom 165 251 5 0 0 0 - - -, f 5;
#X obj 165 228 + \$1;
#X obj 208 164 r tonic_num;
#X floatatom 208 186 5 0 0 0 - - -, f 5;
#X obj 126 189 spigot;
#X obj 232 268 outlet;
#X obj 16 9 inlet;
#X obj 80 11 inlet;
#X obj 174 12 inlet;
#X obj 141 77 t b f f;
#X connect 0 0 1 0;
#X connect 1 0 10 1;
#X connect 2 0 0 1;
#X connect 3 0 0 0;
#X connect 4 0 5 0;
#X connect 5 0 10 0;
#X connect 6 0 11 0;
#X connect 7 0 6 0;
#X connect 8 0 9 0;
#X connect 9 0 7 1;
#X connect 10 0 7 0;
#X connect 12 0 15 0;
#X connect 13 0 4 0;
#X connect 13 0 3 1;
#X connect 14 0 2 1;
#X connect 15 0 5 0;
#X connect 15 1 3 0;
#X connect 15 2 2 0;
#X restore 192 257 pd note;
#N canvas 890 124 450 291 note 0;
#X obj 160 137 &;
#X floatatom 160 164 5 0 0 0 - - -, f 5;
#X obj 198 107 < \$1;
#X obj 160 106 >= \$1;
#X obj 123 141 / 10;
#X floatatom 123 164 5 0 0 0 - - -, f 5;
#X floatatom 165 251 5 0 0 0 - - -, f 5;
#X obj 165 228 + \$1;
#X obj 186 184 r tonic_num;
#X floatatom 186 206 5 0 0 0 - - -, f 5;
#X obj 126 189 spigot;
#X obj 232 268 outlet;
#X obj 16 9 inlet;
#X obj 80 11 inlet;
#X obj 174 12 inlet;
#X obj 141 77 t b f f;
#X connect 0 0 1 0;
#X connect 1 0 10 1;
#X connect 2 0 0 1;
#X connect 3 0 0 0;
#X connect 4 0 5 0;
#X connect 5 0 10 0;
#X connect 6 0 11 0;
#X connect 7 0 6 0;
#X connect 8 0 9 0;
#X connect 9 0 7 1;
#X connect 10 0 7 0;
#X connect 12 0 15 0;
#X connect 13 0 4 0;
#X connect 13 0 3 1;
#X connect 14 0 2 1;
#X connect 15 0 5 0;
#X connect 15 1 3 0;
#X connect 15 2 2 0;
#X restore 262 257 pd note;
#N canvas 894 108 450 291 note 0;
#X obj 160 137 &;
#X floatatom 160 164 5 0 0 0 - - -, f 5;
#X obj 198 107 < \$1;
#X obj 160 106 >= \$1;
#X obj 123 141 / 10;
#X floatatom 123 164 5 0 0 0 - - -, f 5;
#X floatatom 165 251 5 0 0 0 - - -, f 5;
#X obj 165 228 + \$1;
#X obj 186 184 r tonic_num;
#X floatatom 186 206 5 0 0 0 - - -, f 5;
#X obj 126 189 spigot;
#X obj 232 268 outlet;
#X obj 16 9 inlet;
#X obj 80 11 inlet;
#X obj 174 12 inlet;
#X obj 141 77 t b f f;
#X connect 0 0 1 0;
#X connect 1 0 10 1;
#X connect 2 0 0 1;
#X connect 3 0 0 0;
#X connect 4 0 5 0;
#X connect 5 0 10 0;
#X connect 6 0 11 0;
#X connect 7 0 6 0;
#X connect 8 0 9 0;
#X connect 9 0 7 1;
#X connect 10 0 7 0;
#X connect 12 0 15 0;
#X connect 13 0 4 0;
#X connect 13 0 3 1;
#X connect 14 0 2 1;
#X connect 15 0 5 0;
#X connect 15 1 3 0;
#X connect 15 2 2 0;
#X restore 446 257 pd note;
#X floatatom 252 353 5 0 0 0 - - -, f 5;
#X obj 253 379 mtof;
#X obj 34 36 inlet;
#N canvas 894 108 450 291 note 0;
#X obj 160 137 &;
#X floatatom 160 164 5 0 0 0 - - -, f 5;
#X obj 198 107 < \$1;
#X obj 160 106 >= \$1;
#X obj 123 141 / 10;
#X floatatom 123 164 5 0 0 0 - - -, f 5;
#X floatatom 165 251 5 0 0 0 - - -, f 5;
#X obj 165 228 + \$1;
#X obj 186 184 r tonic_num;
#X floatatom 186 206 5 0 0 0 - - -, f 5;
#X obj 126 189 spigot;
#X obj 232 268 outlet;
#X obj 16 9 inlet;
#X obj 80 11 inlet;
#X obj 174 12 inlet;
#X obj 141 77 t b f f;
#X connect 0 0 1 0;
#X connect 1 0 10 1;
#X connect 2 0 0 1;
#X connect 3 0 0 0;
#X connect 4 0 5 0;
#X connect 5 0 10 0;
#X connect 6 0 11 0;
#X connect 7 0 6 0;
#X connect 8 0 9 0;
#X connect 9 0 7 1;
#X connect 10 0 7 0;
#X connect 12 0 15 0;
#X connect 13 0 4 0;
#X connect 13 0 3 1;
#X connect 14 0 2 1;
#X connect 15 0 5 0;
#X connect 15 1 3 0;
#X connect 15 2 2 0;
#X restore 321 257 pd note;
#N canvas 894 108 450 291 note 0;
#X obj 160 137 &;
#X floatatom 160 164 5 0 0 0 - - -, f 5;
#X obj 198 107 < \$1;
#X obj 160 106 >= \$1;
#X obj 123 141 / 10;
#X floatatom 123 164 5 0 0 0 - - -, f 5;
#X floatatom 165 251 5 0 0 0 - - -, f 5;
#X obj 165 228 + \$1;
#X obj 186 184 r tonic_num;
#X floatatom 186 206 5 0 0 0 - - -, f 5;
#X obj 126 189 spigot;
#X obj 232 268 outlet;
#X obj 16 9 inlet;
#X obj 80 11 inlet;
#X obj 174 12 inlet;
#X obj 141 77 t b f f;
#X connect 0 0 1 0;
#X connect 1 0 10 1;
#X connect 2 0 0 1;
#X connect 3 0 0 0;
#X connect 4 0 5 0;
#X connect 5 0 10 0;
#X connect 6 0 11 0;
#X connect 7 0 6 0;
#X connect 8 0 9 0;
#X connect 9 0 7 1;
#X connect 10 0 7 0;
#X connect 12 0 15 0;
#X connect 13 0 4 0;
#X connect 13 0 3 1;
#X connect 14 0 2 1;
#X connect 15 0 5 0;
#X connect 15 1 3 0;
#X connect 15 2 2 0;
#X restore 379 256 pd note;
#X obj 91 37 inlet;
#X obj 154 36 inlet;
#X obj 203 36 inlet;
#X obj 258 36 inlet;
#X obj 310 36 inlet;
#X obj 359 36 inlet;
#X obj 414 36 inlet;
#X obj 252 415 outlet;
#X obj 341 415 outlet;
#X floatatom 22 172 5 0 0 0 - - -, f 5;
#X floatatom 92 66 5 0 0 0 - - -, f 5;
#X floatatom 174 65 5 0 0 0 - - -, f 5;
#X floatatom 229 64 5 0 0 0 - - -, f 5;
#N canvas 754 763 450 347 note 0;
#X obj 160 137 &;
#X floatatom 160 164 5 0 0 0 - - -, f 5;
#X obj 198 107 < \$1;
#X obj 160 106 >= \$1;
#X obj 123 141 / 10;
#X floatatom 123 164 5 0 0 0 - - -, f 5;
#X floatatom 165 251 5 0 0 0 - - -, f 5;
#X obj 165 228 + \$1;
#X obj 208 164 r tonic_num;
#X floatatom 208 186 5 0 0 0 - - -, f 5;
#X obj 126 189 spigot;
#X obj 232 268 outlet;
#X obj 16 9 inlet;
#X obj 80 11 inlet;
#X obj 174 12 inlet;
#X obj 141 77 t b f f;
#X connect 0 0 1 0;
#X connect 1 0 10 1;
#X connect 2 0 0 1;
#X connect 3 0 0 0;
#X connect 4 0 5 0;
#X connect 5 0 10 0;
#X connect 6 0 11 0;
#X connect 7 0 6 0;
#X connect 8 0 9 0;
#X connect 9 0 7 1;
#X connect 10 0 7 0;
#X connect 12 0 15 0;
#X connect 13 0 4 0;
#X connect 13 0 3 1;
#X connect 14 0 2 1;
#X connect 15 0 5 0;
#X connect 15 1 3 0;
#X connect 15 2 2 0;
#X restore 502 258 pd note;
#X obj 477 36 inlet;
#X floatatom 499 70 5 0 0 0 - - -, f 5;
#X floatatom 438 69 5 0 0 0 - - -, f 5;
#X floatatom 275 65 5 0 0 0 - - -, f 5;
#X floatatom 327 63 5 0 0 0 - - -, f 5;
#X floatatom 385 66 5 0 0 0 - - -, f 5;
#N canvas 754 763 450 347 note 0;
#X obj 160 137 &;
#X floatatom 160 164 5 0 0 0 - - -, f 5;
#X obj 198 107 < \$1;
#X obj 160 106 >= \$1;
#X obj 123 141 / 10;
#X floatatom 123 164 5 0 0 0 - - -, f 5;
#X floatatom 165 251 5 0 0 0 - - -, f 5;
#X obj 165 228 + \$1;
#X obj 208 164 r tonic_num;
#X floatatom 208 186 5 0 0 0 - - -, f 5;
#X obj 129 186 spigot;
#X obj 232 268 outlet;
#X obj 16 9 inlet;
#X obj 80 11 inlet;
#X obj 174 12 inlet;
#X obj 141 77 t b f f;
#X connect 0 0 1 0;
#X connect 1 0 10 1;
#X connect 2 0 0 1;
#X connect 3 0 0 0;
#X connect 4 0 5 0;
#X connect 5 0 10 0;
#X connect 6 0 11 0;
#X connect 7 0 6 0;
#X connect 8 0 9 0;
#X connect 9 0 7 1;
#X connect 10 0 7 0;
#X connect 12 0 15 0;
#X connect 13 0 4 0;
#X connect 13 0 3 1;
#X connect 14 0 2 1;
#X connect 15 0 5 0;
#X connect 15 1 3 0;
#X connect 15 2 2 0;
#X restore 558 258 pd note;
#X obj 543 36 inlet;
#X floatatom 565 70 5 0 0 0 - - -, f 5;
#X floatatom 470 331 5 0 0 0 - - -, f 5;
#X connect 0 0 1 0;
#X connect 0 0 2 0;
#X connect 0 0 3 0;
#X connect 0 0 7 0;
#X connect 0 0 8 0;
#X connect 0 0 18 0;
#X connect 0 0 22 0;
#X connect 0 0 29 0;
#X connect 1 0 4 0;
#X connect 2 0 4 0;
#X connect 3 0 4 0;
#X connect 3 0 32 0;
#X connect 4 0 5 0;
#X connect 4 0 17 0;
#X connect 5 0 16 0;
#X connect 6 0 0 0;
#X connect 7 0 4 0;
#X connect 8 0 4 0;
#X connect 9 0 19 0;
#X connect 10 0 1 1;
#X connect 10 0 20 0;
#X connect 11 0 1 2;
#X connect 11 0 2 1;
#X connect 11 0 21 0;
#X connect 12 0 2 2;
#X connect 12 0 7 1;
#X connect 12 0 26 0;
#X connect 13 0 7 2;
#X connect 13 0 8 1;
#X connect 13 0 27 0;
#X connect 14 0 8 2;
#X connect 14 0 3 1;
#X connect 14 0 28 0;
#X connect 15 0 3 2;
#X connect 15 0 22 1;
#X connect 15 0 25 0;
#X connect 22 0 4 0;
#X connect 23 0 22 2;
#X connect 23 0 24 0;
#X connect 23 0 29 1;
#X connect 29 0 4 0;
#X connect 30 0 31 0;
#X connect 30 0 29 2;
#X restore 163 497 pd note_reknowing;
#N canvas 8 188 732 450 note_reknowing 0;
#X obj -5 89 f;
#N canvas 894 108 450 291 note 0;
#X obj 160 137 &;
#X floatatom 160 164 5 0 0 0 - - -, f 5;
#X obj 198 107 < \$1;
#X obj 160 106 >= \$1;
#X obj 123 141 / 10;
#X floatatom 123 164 5 0 0 0 - - -, f 5;
#X floatatom 165 251 5 0 0 0 - - -, f 5;
#X obj 165 228 + \$1;
#X obj 186 184 r tonic_num;
#X floatatom 186 206 5 0 0 0 - - -, f 5;
#X obj 126 189 spigot;
#X obj 232 268 outlet;
#X obj 16 9 inlet;
#X obj 80 11 inlet;
#X obj 174 12 inlet;
#X obj 141 77 t b f f;
#X connect 0 0 1 0;
#X connect 1 0 10 1;
#X connect 2 0 0 1;
#X connect 3 0 0 0;
#X connect 4 0 5 0;
#X connect 5 0 10 0;
#X connect 6 0 11 0;
#X connect 7 0 6 0;
#X connect 8 0 9 0;
#X connect 9 0 7 1;
#X connect 10 0 7 0;
#X connect 12 0 15 0;
#X connect 13 0 4 0;
#X connect 13 0 3 1;
#X connect 14 0 2 1;
#X connect 15 0 5 0;
#X connect 15 1 3 0;
#X connect 15 2 2 0;
#X restore 204 258 pd note;
#N canvas 894 108 450 291 note 0;
#X obj 160 137 &;
#X floatatom 160 164 5 0 0 0 - - -, f 5;
#X obj 198 107 < \$1;
#X obj 160 106 >= \$1;
#X obj 123 141 / 10;
#X floatatom 123 164 5 0 0 0 - - -, f 5;
#X floatatom 165 251 5 0 0 0 - - -, f 5;
#X obj 165 228 + \$1;
#X obj 186 184 r tonic_num;
#X floatatom 186 206 5 0 0 0 - - -, f 5;
#X obj 126 189 spigot;
#X obj 232 268 outlet;
#X obj 16 9 inlet;
#X obj 80 11 inlet;
#X obj 174 12 inlet;
#X obj 141 77 t b f f;
#X connect 0 0 1 0;
#X connect 1 0 10 1;
#X connect 2 0 0 1;
#X connect 3 0 0 0;
#X connect 4 0 5 0;
#X connect 5 0 10 0;
#X connect 6 0 11 0;
#X connect 7 0 6 0;
#X connect 8 0 9 0;
#X connect 9 0 7 1;
#X connect 10 0 7 0;
#X connect 12 0 15 0;
#X connect 13 0 4 0;
#X connect 13 0 3 1;
#X connect 14 0 2 1;
#X connect 15 0 5 0;
#X connect 15 1 3 0;
#X connect 15 2 2 0;
#X restore 262 257 pd note;
#N canvas 59 263 450 291 note 0;
#X obj 160 137 &;
#X floatatom 160 164 5 0 0 0 - - -, f 5;
#X obj 198 107 < \$1;
#X obj 160 106 >= \$1;
#X obj 123 141 / 10;
#X floatatom 123 164 5 0 0 0 - - -, f 5;
#X floatatom 165 251 5 0 0 0 - - -, f 5;
#X obj 165 228 + \$1;
#X obj 186 184 r tonic_num;
#X floatatom 186 206 5 0 0 0 - - -, f 5;
#X obj 126 189 spigot;
#X obj 232 268 outlet;
#X obj 16 9 inlet;
#X obj 80 11 inlet;
#X obj 174 12 inlet;
#X obj 141 77 t b f f;
#X connect 0 0 1 0;
#X connect 1 0 10 1;
#X connect 2 0 0 1;
#X connect 3 0 0 0;
#X connect 4 0 5 0;
#X connect 5 0 10 0;
#X connect 6 0 11 0;
#X connect 7 0 6 0;
#X connect 8 0 9 0;
#X connect 9 0 7 1;
#X connect 10 0 7 0;
#X connect 12 0 15 0;
#X connect 13 0 4 0;
#X connect 13 0 3 1;
#X connect 14 0 2 1;
#X connect 15 0 5 0;
#X connect 15 1 3 0;
#X connect 15 2 2 0;
#X restore 446 257 pd note;
#X floatatom 252 353 5 0 0 0 - - -, f 5;
#X obj 253 379 mtof;
#N canvas 896 100 450 291 note 0;
#X obj 160 137 &;
#X floatatom 160 164 5 0 0 0 - - -, f 5;
#X obj 198 107 < \$1;
#X obj 160 106 >= \$1;
#X obj 123 141 / 10;
#X floatatom 123 164 5 0 0 0 - - -, f 5;
#X floatatom 165 251 5 0 0 0 - - -, f 5;
#X obj 165 228 + \$1;
#X obj 186 184 r tonic_num;
#X floatatom 186 206 5 0 0 0 - - -, f 5;
#X obj 126 189 spigot;
#X obj 232 268 outlet;
#X obj 16 9 inlet;
#X obj 80 11 inlet;
#X obj 174 12 inlet;
#X obj 141 77 t b f f;
#X connect 0 0 1 0;
#X connect 1 0 10 1;
#X connect 2 0 0 1;
#X connect 3 0 0 0;
#X connect 4 0 5 0;
#X connect 5 0 10 0;
#X connect 6 0 11 0;
#X connect 7 0 6 0;
#X connect 8 0 9 0;
#X connect 9 0 7 1;
#X connect 10 0 7 0;
#X connect 12 0 15 0;
#X connect 13 0 4 0;
#X connect 13 0 3 1;
#X connect 14 0 2 1;
#X connect 15 0 5 0;
#X connect 15 1 3 0;
#X connect 15 2 2 0;
#X restore 321 257 pd note;
#N canvas 896 100 450 291 note 0;
#X obj 160 137 &;
#X floatatom 160 164 5 0 0 0 - - -, f 5;
#X obj 198 107 < \$1;
#X obj 160 106 >= \$1;
#X obj 123 141 / 10;
#X floatatom 123 164 5 0 0 0 - - -, f 5;
#X floatatom 165 251 5 0 0 0 - - -, f 5;
#X obj 165 228 + \$1;
#X obj 186 184 r tonic_num;
#X floatatom 186 206 5 0 0 0 - - -, f 5;
#X obj 126 189 spigot;
#X obj 232 268 outlet;
#X obj 16 9 inlet;
#X obj 80 11 inlet;
#X obj 174 12 inlet;
#X obj 141 77 t b f f;
#X connect 0 0 1 0;
#X connect 1 0 10 1;
#X connect 2 0 0 1;
#X connect 3 0 0 0;
#X connect 4 0 5 0;
#X connect 5 0 10 0;
#X connect 6 0 11 0;
#X connect 7 0 6 0;
#X connect 8 0 9 0;
#X connect 9 0 7 1;
#X connect 10 0 7 0;
#X connect 12 0 15 0;
#X connect 13 0 4 0;
#X connect 13 0 3 1;
#X connect 14 0 2 1;
#X connect 15 0 5 0;
#X connect 15 1 3 0;
#X connect 15 2 2 0;
#X restore 379 256 pd note;
#X obj 154 36 inlet;
#X obj 203 36 inlet;
#X obj 258 36 inlet;
#X obj 310 36 inlet;
#X obj 359 36 inlet;
#X obj 414 36 inlet;
#X obj 252 415 outlet;
#X obj -13 35 inlet;
#N canvas 59 263 450 291 note 0;
#X obj 160 137 &;
#X floatatom 160 164 5 0 0 0 - - -, f 5;
#X obj 198 107 < \$1;
#X obj 160 106 >= \$1;
#X obj 123 141 / 10;
#X floatatom 123 164 5 0 0 0 - - -, f 5;
#X floatatom 165 251 5 0 0 0 - - -, f 5;
#X obj 165 228 + \$1;
#X obj 186 184 r tonic_num;
#X floatatom 186 206 5 0 0 0 - - -, f 5;
#X obj 126 189 spigot;
#X obj 232 268 outlet;
#X obj 16 9 inlet;
#X obj 80 11 inlet;
#X obj 174 12 inlet;
#X obj 141 77 t b f f;
#X connect 0 0 1 0;
#X connect 1 0 10 1;
#X connect 2 0 0 1;
#X connect 3 0 0 0;
#X connect 4 0 5 0;
#X connect 5 0 10 0;
#X connect 6 0 11 0;
#X connect 7 0 6 0;
#X connect 8 0 9 0;
#X connect 9 0 7 1;
#X connect 10 0 7 0;
#X connect 12 0 15 0;
#X connect 13 0 4 0;
#X connect 13 0 3 1;
#X connect 14 0 2 1;
#X connect 15 0 5 0;
#X connect 15 1 3 0;
#X connect 15 2 2 0;
#X restore 502 257 pd note;
#X obj 484 36 inlet;
#N canvas 224 160 450 291 note 0;
#X obj 160 137 &;
#X floatatom 160 164 5 0 0 0 - - -, f 5;
#X obj 198 107 < \$1;
#X obj 160 106 >= \$1;
#X obj 123 141 / 10;
#X floatatom 123 164 5 0 0 0 - - -, f 5;
#X floatatom 165 251 5 0 0 0 - - -, f 5;
#X obj 165 228 + \$1;
#X obj 186 184 r tonic_num;
#X floatatom 186 206 5 0 0 0 - - -, f 5;
#X obj 126 189 spigot;
#X obj 232 268 outlet;
#X obj 16 9 inlet;
#X obj 80 11 inlet;
#X obj 174 12 inlet;
#X obj 267 107 > 250;
#X msg 276 224 0;
#X obj 141 77 t b f f f;
#X connect 0 0 1 0;
#X connect 1 0 10 1;
#X connect 2 0 0 1;
#X connect 3 0 0 0;
#X connect 4 0 5 0;
#X connect 5 0 10 0;
#X connect 6 0 11 0;
#X connect 7 0 6 0;
#X connect 8 0 9 0;
#X connect 9 0 7 1;
#X connect 10 0 7 0;
#X connect 12 0 17 0;
#X connect 13 0 4 0;
#X connect 13 0 3 1;
#X connect 14 0 2 1;
#X connect 15 0 16 0;
#X connect 17 0 5 0;
#X connect 17 1 3 0;
#X connect 17 2 2 0;
#X connect 17 3 15 0;
#X restore 568 257 pd note;
#X obj 578 38 inlet;
#X obj 354 414 outlet;
#N canvas 115 505 450 291 note 0;
#X obj 160 137 &;
#X floatatom 160 164 5 0 0 0 - - -, f 5;
#X obj 198 107 < \$1;
#X obj 160 106 >= \$1;
#X obj 123 141 / 10;
#X floatatom 123 164 5 0 0 0 - - -, f 5;
#X floatatom 165 251 5 0 0 0 - - -, f 5;
#X obj 165 228 + \$1;
#X obj 186 184 r tonic_num;
#X floatatom 186 206 5 0 0 0 - - -, f 5;
#X obj 126 189 spigot;
#X obj 232 268 outlet;
#X obj 16 9 inlet;
#X obj 80 11 inlet;
#X obj 174 12 inlet;
#X obj 267 107 > 250;
#X msg 276 224 0;
#X obj 141 77 t b f f f;
#X connect 0 0 1 0;
#X connect 1 0 10 1;
#X connect 2 0 0 1;
#X connect 3 0 0 0;
#X connect 4 0 5 0;
#X connect 5 0 10 0;
#X connect 6 0 11 0;
#X connect 7 0 6 0;
#X connect 8 0 9 0;
#X connect 9 0 7 1;
#X connect 10 0 7 0;
#X connect 12 0 17 0;
#X connect 13 0 4 0;
#X connect 13 0 3 1;
#X connect 14 0 2 1;
#X connect 15 0 16 0;
#X connect 17 0 5 0;
#X connect 17 1 3 0;
#X connect 17 2 2 0;
#X connect 17 3 15 0;
#X restore 626 257 pd note;
#X obj 647 37 inlet;
#X floatatom 220 63 5 0 0 0 - - -, f 5;
#X floatatom 167 63 5 0 0 0 - - -, f 5;
#X connect 0 0 1 0;
#X connect 0 0 2 0;
#X connect 0 0 3 0;
#X connect 0 0 6 0;
#X connect 0 0 7 0;
#X connect 0 0 16 0;
#X connect 0 0 18 0;
#X connect 0 0 21 0;
#X connect 1 0 4 0;
#X connect 2 0 4 0;
#X connect 3 0 4 0;
#X connect 4 0 5 0;
#X connect 4 0 20 0;
#X connect 5 0 14 0;
#X connect 6 0 4 0;
#X connect 7 0 4 0;
#X connect 8 0 1 1;
#X connect 8 0 24 0;
#X connect 9 0 1 2;
#X connect 9 0 2 1;
#X connect 9 0 23 0;
#X connect 10 0 2 2;
#X connect 10 0 6 1;
#X connect 11 0 6 2;
#X connect 11 0 7 1;
#X connect 12 0 7 2;
#X connect 12 0 3 1;
#X connect 13 0 3 2;
#X connect 13 0 16 1;
#X connect 15 0 0 0;
#X connect 16 0 4 0;
#X connect 17 0 16 2;
#X connect 17 0 18 1;
#X connect 18 0 4 0;
#X connect 19 0 18 2;
#X connect 19 0 21 1;
#X connect 21 0 4 0;
#X connect 22 0 21 2;
#X restore 459 518 pd note_reknowing 2;
#X obj 94 5 inlet;
#X obj 33 466 spigot;
#X obj 41 382 r mod_onoff;
#X obj 337 509 spigot;
#X obj 241 583 outlet;
#X obj 355 585 outlet;
#X obj 19 245 inlet;
#X floatatom 470 588 5 0 0 0 - - -, f 5;
#X floatatom 94 221 5 0 0 0 - - -, f 5;
#X floatatom 112 197 5 0 0 0 - - -, f 5;
#X floatatom 130 177 5 0 0 0 - - -, f 5;
#X floatatom 149 153 5 0 0 0 - - -, f 5;
#X floatatom 167 134 5 0 0 0 - - -, f 5;
#X floatatom 186 110 5 0 0 0 - - -, f 5;
#X floatatom 204 90 5 0 0 0 - - -, f 5;
#X floatatom 223 70 5 0 0 0 - - -, f 5;
#X obj 156 248 * 10;
#X floatatom 157 269 5 0 0 0 - - -, f 5;
#X obj 192 248 * 10;
#X floatatom 192 270 5 0 0 0 - - -, f 5;
#X obj 227 248 * 10;
#X floatatom 227 270 5 0 0 0 - - -, f 5;
#X obj 263 248 * 10;
#X floatatom 263 270 5 0 0 0 - - -, f 5;
#X obj 298 247 * 10;
#X floatatom 298 269 5 0 0 0 - - -, f 5;
#X obj 333 247 * 10;
#X floatatom 333 269 5 0 0 0 - - -, f 5;
#X obj 369 247 * 10;
#X floatatom 369 269 5 0 0 0 - - -, f 5;
#X obj 428 391 +;
#X floatatom 428 414 5 0 0 0 - - -, f 5;
#X obj 464 391 +;
#X floatatom 464 414 5 0 0 0 - - -, f 5;
#X obj 500 391 +;
#X floatatom 500 414 5 0 0 0 - - -, f 5;
#X obj 536 391 +;
#X floatatom 536 414 5 0 0 0 - - -, f 5;
#X obj 570 389 +;
#X floatatom 570 412 5 0 0 0 - - -, f 5;
#X obj 606 389 +;
#X floatatom 606 412 5 0 0 0 - - -, f 5;
#X obj 642 389 +;
#X floatatom 642 412 5 0 0 0 - - -, f 5;
#X floatatom 687 412 5 0 0 0 - - -, f 5;
#X floatatom 547 279 5 0 0 0 - - -, f 5;
#X obj 95 33 unpack f f f f f f f f f;
#X floatatom 251 52 5 0 0 0 - - -, f 5;
#X obj 408 247 * 10;
#X floatatom 408 269 5 0 0 0 - - -, f 5;
#X obj 687 388 * 2;
#X floatatom 728 413 5 0 0 0 - - -, f 5;
#X obj 728 390 + 15;
#X msg 53 435 1;
#X obj 54 402 r blues_onoff;
#X msg 81 434 0;
#X obj 329 425 r mod_onoff;
#X msg 341 478 1;
#X obj 342 445 r blues_onoff;
#X msg 369 477 0;
#X floatatom 143 542 5 0 0 0 - - -, f 5;
#X connect 0 0 62 0;
#X connect 0 0 6 0;
#X connect 0 1 7 0;
#X connect 1 0 9 0;
#X connect 1 0 6 0;
#X connect 1 1 7 0;
#X connect 2 0 48 0;
#X connect 3 0 0 0;
#X connect 4 0 55 0;
#X connect 5 0 1 0;
#X connect 8 0 3 0;
#X connect 8 0 5 0;
#X connect 10 0 0 1;
#X connect 11 0 18 0;
#X connect 12 0 20 0;
#X connect 13 0 22 0;
#X connect 14 0 24 0;
#X connect 15 0 26 0;
#X connect 16 0 28 0;
#X connect 17 0 30 0;
#X connect 18 0 19 0;
#X connect 19 0 0 2;
#X connect 20 0 21 0;
#X connect 21 0 34 0;
#X connect 21 0 0 3;
#X connect 22 0 23 0;
#X connect 23 0 36 0;
#X connect 23 0 0 4;
#X connect 24 0 25 0;
#X connect 25 0 38 0;
#X connect 25 0 0 5;
#X connect 26 0 27 0;
#X connect 27 0 40 0;
#X connect 27 0 0 6;
#X connect 28 0 29 0;
#X connect 29 0 42 0;
#X connect 29 0 0 7;
#X connect 30 0 31 0;
#X connect 31 0 44 0;
#X connect 31 0 0 8;
#X connect 32 0 33 0;
#X connect 33 0 1 1;
#X connect 34 0 35 0;
#X connect 35 0 1 2;
#X connect 36 0 37 0;
#X connect 37 0 1 3;
#X connect 38 0 39 0;
#X connect 39 0 1 4;
#X connect 40 0 41 0;
#X connect 41 0 1 5;
#X connect 42 0 43 0;
#X connect 43 0 1 6;
#X connect 44 0 45 0;
#X connect 45 0 1 7;
#X connect 46 0 1 8;
#X connect 47 0 34 1;
#X connect 47 0 36 1;
#X connect 47 0 38 1;
#X connect 47 0 40 1;
#X connect 47 0 42 1;
#X connect 47 0 44 1;
#X connect 47 0 52 0;
#X connect 47 0 32 0;
#X connect 48 0 10 0;
#X connect 48 1 11 0;
#X connect 48 2 12 0;
#X connect 48 3 13 0;
#X connect 48 4 14 0;
#X connect 48 5 15 0;
#X connect 48 6 16 0;
#X connect 48 7 17 0;
#X connect 48 8 49 0;
#X connect 49 0 50 0;
#X connect 50 0 51 0;
#X connect 51 0 47 0;
#X connect 51 0 0 9;
#X connect 52 0 46 0;
#X connect 52 0 54 0;
#X connect 53 0 1 9;
#X connect 54 0 53 0;
#X connect 55 0 3 1;
#X connect 56 0 57 0;
#X connect 57 0 3 1;
#X connect 58 0 59 0;
#X connect 59 0 5 1;
#X connect 60 0 61 0;
#X connect 61 0 5 1;
#X restore 37 -62 pd modali_diatoniche;
#X obj 154 -142 inlet;
#N canvas 736 418 815 672 only_blues 0;
#N canvas 804 685 572 450 note_reknowing 0;
#X obj 49 99 f;
#N canvas 905 137 450 291 note 0;
#X obj 160 137 &;
#X floatatom 160 164 5 0 0 0 - - -, f 5;
#X obj 198 107 < \$1;
#X obj 160 106 >= \$1;
#X obj 123 141 / 10;
#X floatatom 123 164 5 0 0 0 - - -, f 5;
#X floatatom 165 251 5 0 0 0 - - -, f 5;
#X obj 165 228 + \$1;
#X obj 186 184 r tonic_num;
#X floatatom 186 206 5 0 0 0 - - -, f 5;
#X obj 126 189 spigot;
#X obj 232 268 outlet;
#X obj 16 9 inlet;
#X obj 80 11 inlet;
#X obj 174 12 inlet;
#X obj 141 77 t b f f;
#X connect 0 0 1 0;
#X connect 1 0 10 1;
#X connect 2 0 0 1;
#X connect 3 0 0 0;
#X connect 4 0 5 0;
#X connect 5 0 10 0;
#X connect 6 0 11 0;
#X connect 7 0 6 0;
#X connect 8 0 9 0;
#X connect 9 0 7 1;
#X connect 10 0 7 0;
#X connect 12 0 15 0;
#X connect 13 0 4 0;
#X connect 13 0 3 1;
#X connect 14 0 2 1;
#X connect 15 0 5 0;
#X connect 15 1 3 0;
#X connect 15 2 2 0;
#X restore 204 258 pd note;
#N canvas 896 100 450 291 note 0;
#X obj 160 137 &;
#X floatatom 160 164 5 0 0 0 - - -, f 5;
#X obj 198 107 < \$1;
#X obj 160 106 >= \$1;
#X obj 123 141 / 10;
#X floatatom 123 164 5 0 0 0 - - -, f 5;
#X floatatom 165 251 5 0 0 0 - - -, f 5;
#X obj 165 228 + \$1;
#X obj 186 184 r tonic_num;
#X floatatom 186 206 5 0 0 0 - - -, f 5;
#X obj 126 189 spigot;
#X obj 232 268 outlet;
#X obj 16 9 inlet;
#X obj 80 11 inlet;
#X obj 174 12 inlet;
#X obj 141 77 t b f f;
#X connect 0 0 1 0;
#X connect 1 0 10 1;
#X connect 2 0 0 1;
#X connect 3 0 0 0;
#X connect 4 0 5 0;
#X connect 5 0 10 0;
#X connect 6 0 11 0;
#X connect 7 0 6 0;
#X connect 8 0 9 0;
#X connect 9 0 7 1;
#X connect 10 0 7 0;
#X connect 12 0 15 0;
#X connect 13 0 4 0;
#X connect 13 0 3 1;
#X connect 14 0 2 1;
#X connect 15 0 5 0;
#X connect 15 1 3 0;
#X connect 15 2 2 0;
#X restore 262 257 pd note;
#X floatatom 252 353 5 0 0 0 - - -, f 5;
#X obj 253 379 mtof;
#X obj 34 36 inlet;
#N canvas 896 100 450 291 note 0;
#X obj 160 137 &;
#X floatatom 160 164 5 0 0 0 - - -, f 5;
#X obj 198 107 < \$1;
#X obj 160 106 >= \$1;
#X obj 123 141 / 10;
#X floatatom 123 164 5 0 0 0 - - -, f 5;
#X floatatom 165 251 5 0 0 0 - - -, f 5;
#X obj 165 228 + \$1;
#X obj 186 184 r tonic_num;
#X floatatom 186 206 5 0 0 0 - - -, f 5;
#X obj 126 189 spigot;
#X obj 232 268 outlet;
#X obj 16 9 inlet;
#X obj 80 11 inlet;
#X obj 174 12 inlet;
#X obj 141 77 t b f f;
#X connect 0 0 1 0;
#X connect 1 0 10 1;
#X connect 2 0 0 1;
#X connect 3 0 0 0;
#X connect 4 0 5 0;
#X connect 5 0 10 0;
#X connect 6 0 11 0;
#X connect 7 0 6 0;
#X connect 8 0 9 0;
#X connect 9 0 7 1;
#X connect 10 0 7 0;
#X connect 12 0 15 0;
#X connect 13 0 4 0;
#X connect 13 0 3 1;
#X connect 14 0 2 1;
#X connect 15 0 5 0;
#X connect 15 1 3 0;
#X connect 15 2 2 0;
#X restore 321 257 pd note;
#N canvas 896 100 450 291 note 0;
#X obj 160 137 &;
#X floatatom 160 164 5 0 0 0 - - -, f 5;
#X obj 198 107 < \$1;
#X obj 160 106 >= \$1;
#X obj 123 141 / 10;
#X floatatom 123 164 5 0 0 0 - - -, f 5;
#X floatatom 165 251 5 0 0 0 - - -, f 5;
#X obj 165 228 + \$1;
#X obj 186 184 r tonic_num;
#X floatatom 186 206 5 0 0 0 - - -, f 5;
#X obj 126 189 spigot;
#X obj 232 268 outlet;
#X obj 16 9 inlet;
#X obj 80 11 inlet;
#X obj 174 12 inlet;
#X obj 141 77 t b f f;
#X connect 0 0 1 0;
#X connect 1 0 10 1;
#X connect 2 0 0 1;
#X connect 3 0 0 0;
#X connect 4 0 5 0;
#X connect 5 0 10 0;
#X connect 6 0 11 0;
#X connect 7 0 6 0;
#X connect 8 0 9 0;
#X connect 9 0 7 1;
#X connect 10 0 7 0;
#X connect 12 0 15 0;
#X connect 13 0 4 0;
#X connect 13 0 3 1;
#X connect 14 0 2 1;
#X connect 15 0 5 0;
#X connect 15 1 3 0;
#X connect 15 2 2 0;
#X restore 376 256 pd note;
#X obj 99 36 inlet;
#X obj 154 36 inlet;
#X obj 203 36 inlet;
#X obj 258 36 inlet;
#X obj 310 36 inlet;
#X obj 359 36 inlet;
#X obj 252 415 outlet;
#X obj 341 415 outlet;
#N canvas 890 124 450 291 note 0;
#X obj 160 137 &;
#X floatatom 160 164 5 0 0 0 - - -, f 5;
#X obj 198 107 < \$1;
#X obj 160 106 >= \$1;
#X obj 123 141 / 10;
#X floatatom 123 164 5 0 0 0 - - -, f 5;
#X floatatom 165 251 5 0 0 0 - - -, f 5;
#X obj 165 228 + \$1;
#X obj 186 184 r tonic_num;
#X floatatom 186 206 5 0 0 0 - - -, f 5;
#X obj 126 189 spigot;
#X obj 232 268 outlet;
#X obj 16 9 inlet;
#X obj 80 11 inlet;
#X obj 174 12 inlet;
#X obj 141 77 t b f f;
#X connect 0 0 1 0;
#X connect 1 0 10 1;
#X connect 2 0 0 1;
#X connect 3 0 0 0;
#X connect 4 0 5 0;
#X connect 5 0 10 0;
#X connect 6 0 11 0;
#X connect 7 0 6 0;
#X connect 8 0 9 0;
#X connect 9 0 7 1;
#X connect 10 0 7 0;
#X connect 12 0 15 0;
#X connect 13 0 4 0;
#X connect 13 0 3 1;
#X connect 14 0 2 1;
#X connect 15 0 5 0;
#X connect 15 1 3 0;
#X connect 15 2 2 0;
#X restore 433 257 pd note;
#X obj 404 37 inlet;
#X floatatom 115 68 5 0 0 0 - - -, f 5;
#X floatatom 170 70 5 0 0 0 - - -, f 5;
#X floatatom 224 70 5 0 0 0 - - -, f 5;
#X floatatom 428 68 5 0 0 0 - - -, f 5;
#N canvas 890 124 450 291 note 0;
#X obj 160 137 &;
#X floatatom 160 164 5 0 0 0 - - -, f 5;
#X obj 198 107 < \$1;
#X obj 160 106 >= \$1;
#X obj 123 141 / 10;
#X floatatom 123 164 5 0 0 0 - - -, f 5;
#X floatatom 165 251 5 0 0 0 - - -, f 5;
#X obj 165 228 + \$1;
#X obj 186 184 r tonic_num;
#X floatatom 186 206 5 0 0 0 - - -, f 5;
#X obj 126 189 spigot;
#X obj 232 268 outlet;
#X obj 16 9 inlet;
#X obj 80 11 inlet;
#X obj 174 12 inlet;
#X obj 141 77 t b f f;
#X connect 0 0 1 0;
#X connect 1 0 10 1;
#X connect 2 0 0 1;
#X connect 3 0 0 0;
#X connect 4 0 5 0;
#X connect 5 0 10 0;
#X connect 6 0 11 0;
#X connect 7 0 6 0;
#X connect 8 0 9 0;
#X connect 9 0 7 1;
#X connect 10 0 7 0;
#X connect 12 0 15 0;
#X connect 13 0 4 0;
#X connect 13 0 3 1;
#X connect 14 0 2 1;
#X connect 15 0 5 0;
#X connect 15 1 3 0;
#X connect 15 2 2 0;
#X restore 487 257 pd note;
#X obj 462 35 inlet;
#X floatatom 486 68 5 0 0 0 - - -, f 5;
#X connect 0 0 1 0;
#X connect 0 0 2 0;
#X connect 0 0 6 0;
#X connect 0 0 7 0;
#X connect 0 0 16 0;
#X connect 0 0 22 0;
#X connect 1 0 3 0;
#X connect 2 0 3 0;
#X connect 3 0 4 0;
#X connect 3 0 15 0;
#X connect 4 0 14 0;
#X connect 5 0 0 0;
#X connect 6 0 3 0;
#X connect 7 0 3 0;
#X connect 8 0 18 0;
#X connect 9 0 1 1;
#X connect 9 0 19 0;
#X connect 10 0 1 2;
#X connect 10 0 2 1;
#X connect 10 0 20 0;
#X connect 11 0 2 2;
#X connect 11 0 6 1;
#X connect 12 0 6 2;
#X connect 12 0 7 1;
#X connect 13 0 7 2;
#X connect 13 0 16 1;
#X connect 16 0 3 0;
#X connect 17 0 16 2;
#X connect 17 0 21 0;
#X connect 17 0 22 1;
#X connect 22 0 3 0;
#X connect 23 0 22 2;
#X connect 23 0 24 0;
#X restore 205 474 pd note_reknowing;
#X obj 18 431 spigot;
#X obj 14 337 r blues_onoff;
#N canvas 912 551 650 450 note_reknowing 0;
#X obj 29 100 f;
#N canvas 168 306 362 339 note 0;
#X obj 160 137 &;
#X floatatom 160 164 5 0 0 0 - - -, f 5;
#X obj 198 107 < \$1;
#X obj 160 106 >= \$1;
#X obj 123 141 / 10;
#X floatatom 123 164 5 0 0 0 - - -, f 5;
#X floatatom 165 251 5 0 0 0 - - -, f 5;
#X obj 165 228 + \$1;
#X obj 186 184 r tonic_num;
#X floatatom 186 206 5 0 0 0 - - -, f 5;
#X obj 126 189 spigot;
#X obj 165 283 outlet;
#X obj 28 12 inlet;
#X obj 142 14 inlet;
#X obj 244 16 inlet;
#X obj 141 77 t b f f;
#X connect 0 0 1 0;
#X connect 1 0 10 1;
#X connect 2 0 0 1;
#X connect 3 0 0 0;
#X connect 4 0 5 0;
#X connect 5 0 10 0;
#X connect 6 0 11 0;
#X connect 7 0 6 0;
#X connect 8 0 9 0;
#X connect 9 0 7 1;
#X connect 10 0 7 0;
#X connect 12 0 15 0;
#X connect 13 0 4 0;
#X connect 13 0 3 1;
#X connect 14 0 2 1;
#X connect 15 0 5 0;
#X connect 15 1 3 0;
#X connect 15 2 2 0;
#X restore 140 258 pd note;
#N canvas 896 100 450 291 note 0;
#X obj 160 137 &;
#X floatatom 160 164 5 0 0 0 - - -, f 5;
#X obj 198 107 < \$1;
#X obj 160 106 >= \$1;
#X obj 123 141 / 10;
#X floatatom 123 164 5 0 0 0 - - -, f 5;
#X floatatom 165 251 5 0 0 0 - - -, f 5;
#X obj 165 228 + \$1;
#X obj 186 184 r tonic_num;
#X floatatom 186 206 5 0 0 0 - - -, f 5;
#X obj 126 189 spigot;
#X obj 232 268 outlet;
#X obj 16 9 inlet;
#X obj 80 11 inlet;
#X obj 174 12 inlet;
#X obj 141 77 t b f f;
#X connect 0 0 1 0;
#X connect 1 0 10 1;
#X connect 2 0 0 1;
#X connect 3 0 0 0;
#X connect 4 0 5 0;
#X connect 5 0 10 0;
#X connect 6 0 11 0;
#X connect 7 0 6 0;
#X connect 8 0 9 0;
#X connect 9 0 7 1;
#X connect 10 0 7 0;
#X connect 12 0 15 0;
#X connect 13 0 4 0;
#X connect 13 0 3 1;
#X connect 14 0 2 1;
#X connect 15 0 5 0;
#X connect 15 1 3 0;
#X connect 15 2 2 0;
#X restore 204 258 pd note;
#N canvas 896 100 450 291 note 0;
#X obj 160 137 &;
#X floatatom 160 164 5 0 0 0 - - -, f 5;
#X obj 198 107 < \$1;
#X obj 160 106 >= \$1;
#X obj 123 141 / 10;
#X floatatom 123 164 5 0 0 0 - - -, f 5;
#X floatatom 165 251 5 0 0 0 - - -, f 5;
#X obj 165 228 + \$1;
#X obj 186 184 r tonic_num;
#X floatatom 186 206 5 0 0 0 - - -, f 5;
#X obj 126 189 spigot;
#X obj 232 268 outlet;
#X obj 16 9 inlet;
#X obj 80 11 inlet;
#X obj 174 12 inlet;
#X obj 141 77 t b f f;
#X connect 0 0 1 0;
#X connect 1 0 10 1;
#X connect 2 0 0 1;
#X connect 3 0 0 0;
#X connect 4 0 5 0;
#X connect 5 0 10 0;
#X connect 6 0 11 0;
#X connect 7 0 6 0;
#X connect 8 0 9 0;
#X connect 9 0 7 1;
#X connect 10 0 7 0;
#X connect 12 0 15 0;
#X connect 13 0 4 0;
#X connect 13 0 3 1;
#X connect 14 0 2 1;
#X connect 15 0 5 0;
#X connect 15 1 3 0;
#X connect 15 2 2 0;
#X restore 262 257 pd note;
#N canvas 896 100 450 291 note 0;
#X obj 160 137 &;
#X floatatom 160 164 5 0 0 0 - - -, f 5;
#X obj 198 107 < \$1;
#X obj 160 106 >= \$1;
#X obj 123 141 / 10;
#X floatatom 123 164 5 0 0 0 - - -, f 5;
#X floatatom 165 251 5 0 0 0 - - -, f 5;
#X obj 165 228 + \$1;
#X obj 186 184 r tonic_num;
#X floatatom 186 206 5 0 0 0 - - -, f 5;
#X obj 126 189 spigot;
#X obj 232 268 outlet;
#X obj 16 9 inlet;
#X obj 80 11 inlet;
#X obj 174 12 inlet;
#X obj 141 77 t b f f;
#X connect 0 0 1 0;
#X connect 1 0 10 1;
#X connect 2 0 0 1;
#X connect 3 0 0 0;
#X connect 4 0 5 0;
#X connect 5 0 10 0;
#X connect 6 0 11 0;
#X connect 7 0 6 0;
#X connect 8 0 9 0;
#X connect 9 0 7 1;
#X connect 10 0 7 0;
#X connect 12 0 15 0;
#X connect 13 0 4 0;
#X connect 13 0 3 1;
#X connect 14 0 2 1;
#X connect 15 0 5 0;
#X connect 15 1 3 0;
#X connect 15 2 2 0;
#X restore 446 257 pd note;
#X floatatom 252 353 5 0 0 0 - - -, f 5;
#X obj 253 379 mtof;
#X obj 14 37 inlet;
#N canvas 896 100 450 291 note 0;
#X obj 160 137 &;
#X floatatom 160 164 5 0 0 0 - - -, f 5;
#X obj 198 107 < \$1;
#X obj 160 106 >= \$1;
#X obj 123 141 / 10;
#X floatatom 123 164 5 0 0 0 - - -, f 5;
#X floatatom 165 251 5 0 0 0 - - -, f 5;
#X obj 165 228 + \$1;
#X obj 186 184 r tonic_num;
#X floatatom 186 206 5 0 0 0 - - -, f 5;
#X obj 126 189 spigot;
#X obj 232 268 outlet;
#X obj 16 9 inlet;
#X obj 80 11 inlet;
#X obj 174 12 inlet;
#X obj 141 77 t b f f;
#X connect 0 0 1 0;
#X connect 1 0 10 1;
#X connect 2 0 0 1;
#X connect 3 0 0 0;
#X connect 4 0 5 0;
#X connect 5 0 10 0;
#X connect 6 0 11 0;
#X connect 7 0 6 0;
#X connect 8 0 9 0;
#X connect 9 0 7 1;
#X connect 10 0 7 0;
#X connect 12 0 15 0;
#X connect 13 0 4 0;
#X connect 13 0 3 1;
#X connect 14 0 2 1;
#X connect 15 0 5 0;
#X connect 15 1 3 0;
#X connect 15 2 2 0;
#X restore 321 257 pd note;
#N canvas 896 100 450 291 note 0;
#X obj 160 137 &;
#X floatatom 160 164 5 0 0 0 - - -, f 5;
#X obj 198 107 < \$1;
#X obj 160 106 >= \$1;
#X obj 123 141 / 10;
#X floatatom 123 164 5 0 0 0 - - -, f 5;
#X floatatom 165 251 5 0 0 0 - - -, f 5;
#X obj 165 228 + \$1;
#X obj 186 184 r tonic_num;
#X floatatom 186 206 5 0 0 0 - - -, f 5;
#X obj 126 189 spigot;
#X obj 232 268 outlet;
#X obj 16 9 inlet;
#X obj 80 11 inlet;
#X obj 174 12 inlet;
#X obj 141 77 t b f f;
#X connect 0 0 1 0;
#X connect 1 0 10 1;
#X connect 2 0 0 1;
#X connect 3 0 0 0;
#X connect 4 0 5 0;
#X connect 5 0 10 0;
#X connect 6 0 11 0;
#X connect 7 0 6 0;
#X connect 8 0 9 0;
#X connect 9 0 7 1;
#X connect 10 0 7 0;
#X connect 12 0 15 0;
#X connect 13 0 4 0;
#X connect 13 0 3 1;
#X connect 14 0 2 1;
#X connect 15 0 5 0;
#X connect 15 1 3 0;
#X connect 15 2 2 0;
#X restore 379 256 pd note;
#X obj 99 36 inlet;
#X obj 154 36 inlet;
#X obj 203 36 inlet;
#X obj 258 36 inlet;
#X obj 310 36 inlet;
#X obj 359 36 inlet;
#X obj 414 36 inlet;
#X obj 252 415 outlet;
#X obj 341 415 outlet;
#N canvas 168 306 362 339 note 0;
#X obj 160 137 &;
#X floatatom 160 164 5 0 0 0 - - -, f 5;
#X obj 198 107 < \$1;
#X obj 160 106 >= \$1;
#X obj 123 141 / 10;
#X floatatom 123 164 5 0 0 0 - - -, f 5;
#X floatatom 165 251 5 0 0 0 - - -, f 5;
#X obj 165 228 + \$1;
#X obj 186 184 r tonic_num;
#X floatatom 186 206 5 0 0 0 - - -, f 5;
#X obj 126 189 spigot;
#X obj 165 283 outlet;
#X obj 28 12 inlet;
#X obj 142 14 inlet;
#X obj 244 16 inlet;
#X obj 141 77 t b f f;
#X connect 0 0 1 0;
#X connect 1 0 10 1;
#X connect 2 0 0 1;
#X connect 3 0 0 0;
#X connect 4 0 5 0;
#X connect 5 0 10 0;
#X connect 6 0 11 0;
#X connect 7 0 6 0;
#X connect 8 0 9 0;
#X connect 9 0 7 1;
#X connect 10 0 7 0;
#X connect 12 0 15 0;
#X connect 13 0 4 0;
#X connect 13 0 3 1;
#X connect 14 0 2 1;
#X connect 15 0 5 0;
#X connect 15 1 3 0;
#X connect 15 2 2 0;
#X restore 75 257 pd note;
#X obj 54 38 inlet;
#X connect 0 0 1 0;
#X connect 0 0 2 0;
#X connect 0 0 3 0;
#X connect 0 0 4 0;
#X connect 0 0 8 0;
#X connect 0 0 9 0;
#X connect 0 0 19 0;
#X connect 1 0 5 0;
#X connect 2 0 5 0;
#X connect 3 0 5 0;
#X connect 4 0 5 0;
#X connect 5 0 6 0;
#X connect 5 0 18 0;
#X connect 6 0 17 0;
#X connect 7 0 0 0;
#X connect 8 0 5 0;
#X connect 9 0 5 0;
#X connect 10 0 1 1;
#X connect 10 0 19 2;
#X connect 11 0 1 2;
#X connect 11 0 2 1;
#X connect 12 0 2 2;
#X connect 12 0 3 1;
#X connect 13 0 3 2;
#X connect 13 0 8 1;
#X connect 14 0 8 2;
#X connect 14 0 9 1;
#X connect 15 0 9 2;
#X connect 15 0 4 1;
#X connect 16 0 4 2;
#X connect 19 0 5 0;
#X connect 20 0 19 1;
#X restore 537 497 pd note_reknowing 2;
#X obj 351 416 spigot;
#X obj -21 222 inlet;
#X obj 179 547 outlet;
#X obj 279 549 outlet;
#X floatatom 350 539 5 0 0 0 - - -, f 5;
#X floatatom -8 461 5 0 0 0 - - -, f 5;
#X floatatom 140 520 5 0 0 0 - - -, f 5;
#X floatatom 539 548 5 0 0 0 - - -, f 5;
#X msg 28 395 1;
#X obj 34 362 r mod_onoff;
#X msg 58 396 0;
#X obj 359 333 r blues_onoff;
#X msg 373 391 1;
#X obj 379 358 r mod_onoff;
#X msg 403 392 0;
#X floatatom 31 252 5 0 0 0 - - -, f 5;
#X floatatom 83 172 5 0 0 0 - - -, f 5;
#X floatatom 101 148 5 0 0 0 - - -, f 5;
#X floatatom 119 128 5 0 0 0 - - -, f 5;
#X floatatom 138 104 5 0 0 0 - - -, f 5;
#X floatatom 156 85 5 0 0 0 - - -, f 5;
#X floatatom 175 61 5 0 0 0 - - -, f 5;
#X floatatom 193 41 5 0 0 0 - - -, f 5;
#X obj 145 199 * 10;
#X floatatom 145 221 5 0 0 0 - - -, f 5;
#X obj 181 199 * 10;
#X floatatom 181 221 5 0 0 0 - - -, f 5;
#X obj 216 199 * 10;
#X floatatom 216 221 5 0 0 0 - - -, f 5;
#X obj 252 199 * 10;
#X floatatom 252 221 5 0 0 0 - - -, f 5;
#X obj 287 198 * 10;
#X floatatom 287 220 5 0 0 0 - - -, f 5;
#X obj 370 195 * 10;
#X floatatom 371 218 5 0 0 0 - - -, f 5;
#X obj 82 -55 inlet;
#X obj 479 313 +;
#X floatatom 479 336 5 0 0 0 - - -, f 5;
#X obj 515 313 +;
#X floatatom 515 336 5 0 0 0 - - -, f 5;
#X obj 551 313 +;
#X floatatom 551 336 5 0 0 0 - - -, f 5;
#X obj 587 313 +;
#X floatatom 587 336 5 0 0 0 - - -, f 5;
#X obj 621 311 +;
#X floatatom 621 334 5 0 0 0 - - -, f 5;
#X obj 657 311 +;
#X floatatom 657 334 5 0 0 0 - - -, f 5;
#X floatatom 693 334 5 0 0 0 - - -, f 5;
#X obj 84 -16 unpack f f f f f f f f;
#X floatatom 223 25 5 0 0 0 - - -, f 5;
#X obj 328 197 * 10;
#X floatatom 328 219 5 0 0 0 - - -, f 5;
#X floatatom 573 208 5 0 0 0 - - -, f 5;
#X obj 693 311 * 2;
#X floatatom 731 333 5 0 0 0 - - -, f 5;
#X obj 731 310 + 15;
#X connect 0 0 6 0;
#X connect 0 0 10 0;
#X connect 0 1 7 0;
#X connect 0 1 8 0;
#X connect 1 0 0 0;
#X connect 1 0 9 0;
#X connect 2 0 12 0;
#X connect 3 0 6 0;
#X connect 3 0 11 0;
#X connect 3 1 7 0;
#X connect 4 0 3 0;
#X connect 5 0 1 0;
#X connect 5 0 4 0;
#X connect 5 0 19 0;
#X connect 12 0 1 1;
#X connect 13 0 14 0;
#X connect 14 0 1 1;
#X connect 15 0 16 0;
#X connect 16 0 4 1;
#X connect 17 0 18 0;
#X connect 18 0 4 1;
#X connect 20 0 0 1;
#X connect 21 0 27 0;
#X connect 22 0 29 0;
#X connect 23 0 31 0;
#X connect 24 0 33 0;
#X connect 25 0 35 0;
#X connect 26 0 55 0;
#X connect 27 0 28 0;
#X connect 28 0 40 0;
#X connect 28 0 0 2;
#X connect 29 0 30 0;
#X connect 30 0 42 0;
#X connect 30 0 0 3;
#X connect 31 0 32 0;
#X connect 32 0 44 0;
#X connect 32 0 0 4;
#X connect 33 0 34 0;
#X connect 34 0 46 0;
#X connect 34 0 0 5;
#X connect 35 0 36 0;
#X connect 36 0 48 0;
#X connect 36 0 0 6;
#X connect 37 0 38 0;
#X connect 38 0 57 0;
#X connect 38 0 0 8;
#X connect 39 0 53 0;
#X connect 40 0 41 0;
#X connect 41 0 3 1;
#X connect 42 0 43 0;
#X connect 43 0 3 2;
#X connect 44 0 45 0;
#X connect 45 0 3 3;
#X connect 46 0 47 0;
#X connect 47 0 3 4;
#X connect 48 0 49 0;
#X connect 49 0 3 5;
#X connect 50 0 51 0;
#X connect 51 0 3 6;
#X connect 52 0 3 7;
#X connect 53 0 20 0;
#X connect 53 1 21 0;
#X connect 53 2 22 0;
#X connect 53 3 23 0;
#X connect 53 4 24 0;
#X connect 53 5 25 0;
#X connect 53 6 26 0;
#X connect 53 7 54 0;
#X connect 54 0 37 0;
#X connect 55 0 56 0;
#X connect 56 0 50 0;
#X connect 56 0 0 7;
#X connect 57 0 40 1;
#X connect 57 0 42 1;
#X connect 57 0 44 1;
#X connect 57 0 46 1;
#X connect 57 0 48 1;
#X connect 57 0 50 1;
#X connect 57 0 58 0;
#X connect 58 0 52 0;
#X connect 58 0 60 0;
#X connect 59 0 3 8;
#X connect 60 0 59 0;
#X restore 243 -60 pd only_blues;
#X obj 318 -125 inlet;
#X floatatom 336 4 5 0 0 0 - - -, f 5;
#X text 339 -102 blues;
#X obj 63 99 osc~;
#X msg 135 60 0;
#X obj 62 152 s~ drysg;
#X obj 39 -140 r fdata;
#X floatatom 47 -96 5 0 0 0 - - -, f 5;
#X obj 62 123 *~ 0.5;
#X connect 0 0 1 0;
#X connect 0 0 12 0;
#X connect 6 0 0 0;
#X connect 6 1 2 0;
#X connect 7 0 6 1;
#X connect 8 0 0 0;
#X connect 8 1 2 0;
#X connect 8 1 10 0;
#X connect 9 0 8 1;
#X connect 12 0 17 0;
#X connect 13 0 12 0;
#X connect 15 0 6 0;
#X connect 15 0 8 0;
#X connect 15 0 16 0;
#X connect 17 0 14 0;
